<svg width="451" height="29" viewBox="0 0 451 29" fill="none" xmlns="http://www.w3.org/2000/svg">
<path d="M7.65 17.3H3.366L2.754 20H0.27L3.276 7.4H7.74L10.746 20H8.262L7.65 17.3ZM3.87 15.032H7.128L5.67 8.588H5.346L3.87 15.032ZM14.3155 20H12.0475V7.4H14.3155V12.368H14.6395C14.8795 11.876 15.2275 11.498 15.6835 11.234C16.1395 10.958 16.7215 10.82 17.4295 10.82C17.9575 10.82 18.4555 10.922 18.9235 11.126C19.4035 11.33 19.8175 11.63 20.1655 12.026C20.5255 12.41 20.8075 12.884 21.0115 13.448C21.2275 14.012 21.3355 14.654 21.3355 15.374V15.698C21.3355 16.43 21.2335 17.078 21.0295 17.642C20.8255 18.206 20.5495 18.686 20.2015 19.082C19.8535 19.466 19.4395 19.76 18.9595 19.964C18.4915 20.156 17.9815 20.252 17.4295 20.252C17.0215 20.252 16.6675 20.21 16.3675 20.126C16.0675 20.042 15.8035 19.928 15.5755 19.784C15.3595 19.64 15.1735 19.478 15.0175 19.298C14.8735 19.106 14.7475 18.908 14.6395 18.704H14.3155V20ZM16.6915 18.092C17.3995 18.092 17.9695 17.876 18.4015 17.444C18.8455 17 19.0675 16.4 19.0675 15.644V15.428C19.0675 14.672 18.8455 14.078 18.4015 13.646C17.9695 13.202 17.3995 12.98 16.6915 12.98C15.9835 12.98 15.4075 13.208 14.9635 13.664C14.5315 14.108 14.3155 14.696 14.3155 15.428V15.644C14.3155 16.376 14.5315 16.97 14.9635 17.426C15.4075 17.87 15.9835 18.092 16.6915 18.092ZM32.195 15.644C32.195 16.388 32.069 17.048 31.817 17.624C31.565 18.188 31.223 18.668 30.791 19.064C30.359 19.448 29.861 19.742 29.297 19.946C28.745 20.15 28.163 20.252 27.551 20.252C26.939 20.252 26.351 20.15 25.787 19.946C25.235 19.742 24.743 19.448 24.311 19.064C23.879 18.668 23.537 18.188 23.285 17.624C23.033 17.048 22.907 16.388 22.907 15.644V15.428C22.907 14.696 23.033 14.048 23.285 13.484C23.537 12.908 23.879 12.422 24.311 12.026C24.743 11.63 25.235 11.33 25.787 11.126C26.351 10.922 26.939 10.82 27.551 10.82C28.163 10.82 28.745 10.922 29.297 11.126C29.861 11.33 30.359 11.63 30.791 12.026C31.223 12.422 31.565 12.908 31.817 13.484C32.069 14.048 32.195 14.696 32.195 15.428V15.644ZM27.551 18.092C27.875 18.092 28.181 18.038 28.469 17.93C28.757 17.822 29.009 17.666 29.225 17.462C29.441 17.258 29.609 17.012 29.729 16.724C29.861 16.424 29.927 16.088 29.927 15.716V15.356C29.927 14.984 29.861 14.654 29.729 14.366C29.609 14.066 29.441 13.814 29.225 13.61C29.009 13.406 28.757 13.25 28.469 13.142C28.181 13.034 27.875 12.98 27.551 12.98C27.227 12.98 26.921 13.034 26.633 13.142C26.345 13.25 26.093 13.406 25.877 13.61C25.661 13.814 25.487 14.066 25.355 14.366C25.235 14.654 25.175 14.984 25.175 15.356V15.716C25.175 16.088 25.235 16.424 25.355 16.724C25.487 17.012 25.661 17.258 25.877 17.462C26.093 17.666 26.345 17.822 26.633 17.93C26.921 18.038 27.227 18.092 27.551 18.092ZM40.5165 11.072H42.7845V20H40.5165V18.704H40.1925C39.7965 19.736 38.9445 20.252 37.6365 20.252C37.1925 20.252 36.7785 20.18 36.3945 20.036C36.0105 19.892 35.6745 19.67 35.3865 19.37C35.0985 19.07 34.8705 18.698 34.7025 18.254C34.5465 17.798 34.4685 17.264 34.4685 16.652V11.072H36.7365V16.184C36.7365 16.82 36.8865 17.318 37.1865 17.678C37.4865 18.026 37.9365 18.2 38.5365 18.2C39.2205 18.2 39.7185 17.984 40.0305 17.552C40.3545 17.108 40.5165 16.508 40.5165 15.752V11.072ZM45.2379 11.072H47.8839V7.4H50.1519V11.072H53.3739V13.232H50.1519V17.3C50.1519 17.66 50.3139 17.84 50.6379 17.84H53.0499V20H49.2699C48.8619 20 48.5259 19.868 48.2619 19.604C48.0099 19.34 47.8839 19.004 47.8839 18.596V13.232H45.2379V11.072Z" fill="#222222"/>
<path d="M96.828 17.732H98.016V9.668H96.828V7.4H102.354C102.954 7.4 103.482 7.484 103.938 7.652C104.406 7.82 104.796 8.048 105.108 8.336C105.432 8.624 105.672 8.972 105.828 9.38C105.996 9.776 106.08 10.208 106.08 10.676V10.892C106.08 11.612 105.876 12.188 105.468 12.62C105.072 13.052 104.568 13.352 103.956 13.52V13.844C104.568 14.012 105.072 14.318 105.468 14.762C105.876 15.194 106.08 15.77 106.08 16.49V16.706C106.08 17.174 105.996 17.612 105.828 18.02C105.672 18.416 105.432 18.764 105.108 19.064C104.796 19.352 104.406 19.58 103.938 19.748C103.482 19.916 102.954 20 102.354 20H96.828V17.732ZM100.392 17.732H102.12C102.624 17.732 103.032 17.624 103.344 17.408C103.656 17.192 103.812 16.832 103.812 16.328V16.22C103.812 15.716 103.656 15.356 103.344 15.14C103.032 14.924 102.624 14.816 102.12 14.816H100.392V17.732ZM100.392 12.548H102.12C102.624 12.548 103.032 12.446 103.344 12.242C103.656 12.026 103.812 11.666 103.812 11.162V11.054C103.812 10.55 103.656 10.196 103.344 9.992C103.032 9.776 102.624 9.668 102.12 9.668H100.392V12.548ZM108.371 17.84H111.503V9.56H108.479V7.4H113.771V17.84H116.687V20H108.371V17.84ZM128.195 15.644C128.195 16.388 128.069 17.048 127.817 17.624C127.565 18.188 127.223 18.668 126.791 19.064C126.359 19.448 125.861 19.742 125.297 19.946C124.745 20.15 124.163 20.252 123.551 20.252C122.939 20.252 122.351 20.15 121.787 19.946C121.235 19.742 120.743 19.448 120.311 19.064C119.879 18.668 119.537 18.188 119.285 17.624C119.033 17.048 118.907 16.388 118.907 15.644V15.428C118.907 14.696 119.033 14.048 119.285 13.484C119.537 12.908 119.879 12.422 120.311 12.026C120.743 11.63 121.235 11.33 121.787 11.126C122.351 10.922 122.939 10.82 123.551 10.82C124.163 10.82 124.745 10.922 125.297 11.126C125.861 11.33 126.359 11.63 126.791 12.026C127.223 12.422 127.565 12.908 127.817 13.484C128.069 14.048 128.195 14.696 128.195 15.428V15.644ZM123.551 18.092C123.875 18.092 124.181 18.038 124.469 17.93C124.757 17.822 125.009 17.666 125.225 17.462C125.441 17.258 125.609 17.012 125.729 16.724C125.861 16.424 125.927 16.088 125.927 15.716V15.356C125.927 14.984 125.861 14.654 125.729 14.366C125.609 14.066 125.441 13.814 125.225 13.61C125.009 13.406 124.757 13.25 124.469 13.142C124.181 13.034 123.875 12.98 123.551 12.98C123.227 12.98 122.921 13.034 122.633 13.142C122.345 13.25 122.093 13.406 121.877 13.61C121.661 13.814 121.487 14.066 121.355 14.366C121.235 14.654 121.175 14.984 121.175 15.356V15.716C121.175 16.088 121.235 16.424 121.355 16.724C121.487 17.012 121.661 17.258 121.877 17.462C122.093 17.666 122.345 17.822 122.633 17.93C122.921 18.038 123.227 18.092 123.551 18.092ZM136.84 18.704H136.516C136.42 18.908 136.3 19.106 136.156 19.298C136.024 19.478 135.844 19.64 135.616 19.784C135.4 19.928 135.136 20.042 134.824 20.126C134.524 20.21 134.158 20.252 133.726 20.252C133.174 20.252 132.658 20.156 132.178 19.964C131.71 19.76 131.296 19.466 130.936 19.082C130.588 18.686 130.312 18.206 130.108 17.642C129.916 17.078 129.82 16.43 129.82 15.698V15.374C129.82 14.654 129.922 14.012 130.126 13.448C130.342 12.884 130.63 12.41 130.99 12.026C131.362 11.63 131.788 11.33 132.268 11.126C132.76 10.922 133.276 10.82 133.816 10.82C134.536 10.82 135.106 10.958 135.526 11.234C135.946 11.498 136.276 11.876 136.516 12.368H136.84V11.072H139.108V22.196C139.108 22.604 138.976 22.94 138.712 23.204C138.46 23.468 138.13 23.6 137.722 23.6H131.71V21.44H136.354C136.678 21.44 136.84 21.26 136.84 20.9V18.704ZM134.464 18.092C135.172 18.092 135.742 17.87 136.174 17.426C136.618 16.97 136.84 16.376 136.84 15.644V15.428C136.84 14.696 136.618 14.108 136.174 13.664C135.742 13.208 135.172 12.98 134.464 12.98C133.756 12.98 133.18 13.202 132.736 13.646C132.304 14.078 132.088 14.672 132.088 15.428V15.644C132.088 16.4 132.304 17 132.736 17.444C133.18 17.876 133.756 18.092 134.464 18.092Z" fill="#222222"/>
<path d="M181.972 7.4H191.044V9.668H187.696V20H185.32V9.668H181.972V7.4ZM195.423 16.274C195.435 16.538 195.495 16.784 195.603 17.012C195.723 17.228 195.879 17.42 196.071 17.588C196.275 17.744 196.503 17.87 196.755 17.966C197.019 18.05 197.295 18.092 197.583 18.092C198.147 18.092 198.579 17.996 198.879 17.804C199.179 17.6 199.395 17.36 199.527 17.084L201.471 18.164C201.363 18.392 201.213 18.632 201.021 18.884C200.829 19.124 200.577 19.346 200.265 19.55C199.965 19.754 199.593 19.922 199.149 20.054C198.717 20.186 198.207 20.252 197.619 20.252C196.947 20.252 196.335 20.144 195.783 19.928C195.231 19.712 194.751 19.4 194.343 18.992C193.947 18.584 193.635 18.086 193.407 17.498C193.191 16.91 193.083 16.244 193.083 15.5V15.392C193.083 14.708 193.197 14.084 193.425 13.52C193.665 12.956 193.989 12.476 194.397 12.08C194.805 11.684 195.279 11.378 195.819 11.162C196.371 10.934 196.959 10.82 197.583 10.82C198.351 10.82 199.011 10.958 199.563 11.234C200.115 11.498 200.571 11.84 200.931 12.26C201.291 12.668 201.555 13.124 201.723 13.628C201.891 14.12 201.975 14.6 201.975 15.068V16.274H195.423ZM197.565 12.872C196.989 12.872 196.521 13.022 196.161 13.322C195.801 13.61 195.567 13.946 195.459 14.33H199.671C199.599 13.91 199.371 13.562 198.987 13.286C198.615 13.01 198.141 12.872 197.565 12.872ZM210.225 18.704C209.985 19.268 209.649 19.67 209.217 19.91C208.785 20.138 208.281 20.252 207.705 20.252C207.165 20.252 206.655 20.15 206.175 19.946C205.707 19.742 205.293 19.442 204.933 19.046C204.573 18.65 204.285 18.17 204.069 17.606C203.865 17.042 203.763 16.4 203.763 15.68V15.392C203.763 14.684 203.865 14.048 204.069 13.484C204.273 12.92 204.549 12.44 204.897 12.044C205.245 11.648 205.647 11.348 206.103 11.144C206.571 10.928 207.069 10.82 207.597 10.82C208.233 10.82 208.743 10.928 209.127 11.144C209.523 11.36 209.835 11.696 210.063 12.152H210.387V11.072H212.655V17.3C212.655 17.66 212.817 17.84 213.141 17.84H213.483V20H211.935C211.527 20 211.191 19.88 210.927 19.64C210.675 19.4 210.549 19.088 210.549 18.704H210.225ZM208.209 18.092C208.869 18.092 209.397 17.876 209.793 17.444C210.189 17 210.387 16.4 210.387 15.644V15.428C210.387 14.672 210.189 14.078 209.793 13.646C209.397 13.202 208.869 12.98 208.209 12.98C207.549 12.98 207.021 13.202 206.625 13.646C206.229 14.078 206.031 14.672 206.031 15.428V15.644C206.031 16.4 206.229 17 206.625 17.444C207.021 17.876 207.549 18.092 208.209 18.092ZM224.432 20H222.164V13.736C222.164 13.484 222.098 13.298 221.966 13.178C221.846 13.046 221.684 12.98 221.48 12.98C221.24 12.98 221.048 13.052 220.904 13.196C220.772 13.34 220.706 13.556 220.706 13.844V20H218.438V13.736C218.438 13.484 218.366 13.298 218.222 13.178C218.09 13.046 217.928 12.98 217.736 12.98C217.52 12.98 217.34 13.052 217.196 13.196C217.052 13.34 216.98 13.556 216.98 13.844V20H214.712V11.072H216.98V11.936H217.304C217.376 11.612 217.538 11.348 217.79 11.144C218.054 10.928 218.396 10.82 218.816 10.82C219.212 10.82 219.548 10.928 219.824 11.144C220.1 11.348 220.286 11.612 220.382 11.936H220.706C220.802 11.612 221 11.348 221.3 11.144C221.612 10.928 221.996 10.82 222.452 10.82C223.052 10.82 223.532 11.024 223.892 11.432C224.252 11.828 224.432 12.38 224.432 13.088V20Z" fill="#222222"/>
<path d="M271.544 18.092C272 18.092 272.372 18.026 272.66 17.894C272.96 17.75 273.188 17.564 273.344 17.336C273.512 17.096 273.626 16.826 273.686 16.526C273.746 16.214 273.776 15.896 273.776 15.572V15.248H276.152V15.572C276.152 17.072 275.756 18.23 274.964 19.046C274.184 19.85 273.044 20.252 271.544 20.252C270.104 20.252 268.964 19.814 268.124 18.938C267.284 18.062 266.864 16.784 266.864 15.104V12.296C266.864 11.492 266.972 10.772 267.188 10.136C267.404 9.488 267.716 8.948 268.124 8.516C268.532 8.072 269.024 7.736 269.6 7.508C270.176 7.268 270.824 7.148 271.544 7.148C272.288 7.148 272.948 7.256 273.524 7.472C274.1 7.688 274.58 8 274.964 8.408C275.36 8.816 275.654 9.308 275.846 9.884C276.05 10.46 276.152 11.108 276.152 11.828V12.152H273.776V11.828C273.776 11.528 273.74 11.228 273.668 10.928C273.596 10.628 273.476 10.358 273.308 10.118C273.14 9.878 272.912 9.686 272.624 9.542C272.336 9.386 271.976 9.308 271.544 9.308C271.148 9.308 270.806 9.386 270.518 9.542C270.23 9.686 269.99 9.89 269.798 10.154C269.606 10.406 269.462 10.706 269.366 11.054C269.282 11.39 269.24 11.744 269.24 12.116V15.284C269.24 15.692 269.282 16.07 269.366 16.418C269.45 16.754 269.582 17.048 269.762 17.3C269.942 17.552 270.176 17.75 270.464 17.894C270.764 18.026 271.124 18.092 271.544 18.092ZM284.203 18.704C283.963 19.268 283.627 19.67 283.195 19.91C282.763 20.138 282.259 20.252 281.683 20.252C281.143 20.252 280.633 20.15 280.153 19.946C279.685 19.742 279.271 19.442 278.911 19.046C278.551 18.65 278.263 18.17 278.047 17.606C277.843 17.042 277.741 16.4 277.741 15.68V15.392C277.741 14.684 277.843 14.048 278.047 13.484C278.251 12.92 278.527 12.44 278.875 12.044C279.223 11.648 279.625 11.348 280.081 11.144C280.549 10.928 281.047 10.82 281.575 10.82C282.211 10.82 282.721 10.928 283.105 11.144C283.501 11.36 283.813 11.696 284.041 12.152H284.365V11.072H286.633V17.3C286.633 17.66 286.795 17.84 287.119 17.84H287.461V20H285.913C285.505 20 285.169 19.88 284.905 19.64C284.653 19.4 284.527 19.088 284.527 18.704H284.203ZM282.187 18.092C282.847 18.092 283.375 17.876 283.771 17.444C284.167 17 284.365 16.4 284.365 15.644V15.428C284.365 14.672 284.167 14.078 283.771 13.646C283.375 13.202 282.847 12.98 282.187 12.98C281.527 12.98 280.999 13.202 280.603 13.646C280.207 14.078 280.009 14.672 280.009 15.428V15.644C280.009 16.4 280.207 17 280.603 17.444C280.999 17.876 281.527 18.092 282.187 18.092ZM289.015 11.072H292.795V12.368H293.119C293.287 11.876 293.569 11.498 293.965 11.234C294.373 10.958 294.859 10.82 295.423 10.82C296.311 10.82 297.025 11.102 297.565 11.666C298.105 12.218 298.375 13.064 298.375 14.204V14.6L296.035 14.816V14.564C296.035 14.072 295.909 13.682 295.657 13.394C295.405 13.094 295.027 12.944 294.523 12.944C294.019 12.944 293.623 13.118 293.335 13.466C293.047 13.814 292.903 14.312 292.903 14.96V17.84H294.955V20H288.799V17.84H290.635V13.232H289.015V11.072ZM302.466 16.274C302.478 16.538 302.538 16.784 302.646 17.012C302.766 17.228 302.922 17.42 303.114 17.588C303.318 17.744 303.546 17.87 303.798 17.966C304.062 18.05 304.338 18.092 304.626 18.092C305.19 18.092 305.622 17.996 305.922 17.804C306.222 17.6 306.438 17.36 306.57 17.084L308.514 18.164C308.406 18.392 308.256 18.632 308.064 18.884C307.872 19.124 307.62 19.346 307.308 19.55C307.008 19.754 306.636 19.922 306.192 20.054C305.76 20.186 305.25 20.252 304.662 20.252C303.99 20.252 303.378 20.144 302.826 19.928C302.274 19.712 301.794 19.4 301.386 18.992C300.99 18.584 300.678 18.086 300.45 17.498C300.234 16.91 300.126 16.244 300.126 15.5V15.392C300.126 14.708 300.24 14.084 300.468 13.52C300.708 12.956 301.032 12.476 301.44 12.08C301.848 11.684 302.322 11.378 302.862 11.162C303.414 10.934 304.002 10.82 304.626 10.82C305.394 10.82 306.054 10.958 306.606 11.234C307.158 11.498 307.614 11.84 307.974 12.26C308.334 12.668 308.598 13.124 308.766 13.628C308.934 14.12 309.018 14.6 309.018 15.068V16.274H302.466ZM304.608 12.872C304.032 12.872 303.564 13.022 303.204 13.322C302.844 13.61 302.61 13.946 302.502 14.33H306.714C306.642 13.91 306.414 13.562 306.03 13.286C305.658 13.01 305.184 12.872 304.608 12.872ZM313.488 16.274C313.5 16.538 313.56 16.784 313.668 17.012C313.788 17.228 313.944 17.42 314.136 17.588C314.34 17.744 314.568 17.87 314.82 17.966C315.084 18.05 315.36 18.092 315.648 18.092C316.212 18.092 316.644 17.996 316.944 17.804C317.244 17.6 317.46 17.36 317.592 17.084L319.536 18.164C319.428 18.392 319.278 18.632 319.086 18.884C318.894 19.124 318.642 19.346 318.33 19.55C318.03 19.754 317.658 19.922 317.214 20.054C316.782 20.186 316.272 20.252 315.684 20.252C315.012 20.252 314.4 20.144 313.848 19.928C313.296 19.712 312.816 19.4 312.408 18.992C312.012 18.584 311.7 18.086 311.472 17.498C311.256 16.91 311.148 16.244 311.148 15.5V15.392C311.148 14.708 311.262 14.084 311.49 13.52C311.73 12.956 312.054 12.476 312.462 12.08C312.87 11.684 313.344 11.378 313.884 11.162C314.436 10.934 315.024 10.82 315.648 10.82C316.416 10.82 317.076 10.958 317.628 11.234C318.18 11.498 318.636 11.84 318.996 12.26C319.356 12.668 319.62 13.124 319.788 13.628C319.956 14.12 320.04 14.6 320.04 15.068V16.274H313.488ZM315.63 12.872C315.054 12.872 314.586 13.022 314.226 13.322C313.866 13.61 313.632 13.946 313.524 14.33H317.736C317.664 13.91 317.436 13.562 317.052 13.286C316.68 13.01 316.206 12.872 315.63 12.872ZM322.079 11.072H325.859V12.368H326.183C326.351 11.876 326.633 11.498 327.029 11.234C327.437 10.958 327.923 10.82 328.487 10.82C329.375 10.82 330.089 11.102 330.629 11.666C331.169 12.218 331.439 13.064 331.439 14.204V14.6L329.099 14.816V14.564C329.099 14.072 328.973 13.682 328.721 13.394C328.469 13.094 328.091 12.944 327.587 12.944C327.083 12.944 326.687 13.118 326.399 13.466C326.111 13.814 325.967 14.312 325.967 14.96V17.84H328.019V20H321.863V17.84H323.699V13.232H322.079V11.072Z" fill="#222222"/>
<path d="M378.544 18.092C379 18.092 379.372 18.026 379.66 17.894C379.96 17.75 380.188 17.564 380.344 17.336C380.512 17.096 380.626 16.826 380.686 16.526C380.746 16.214 380.776 15.896 380.776 15.572V15.248H383.152V15.572C383.152 17.072 382.756 18.23 381.964 19.046C381.184 19.85 380.044 20.252 378.544 20.252C377.104 20.252 375.964 19.814 375.124 18.938C374.284 18.062 373.864 16.784 373.864 15.104V12.296C373.864 11.492 373.972 10.772 374.188 10.136C374.404 9.488 374.716 8.948 375.124 8.516C375.532 8.072 376.024 7.736 376.6 7.508C377.176 7.268 377.824 7.148 378.544 7.148C379.288 7.148 379.948 7.256 380.524 7.472C381.1 7.688 381.58 8 381.964 8.408C382.36 8.816 382.654 9.308 382.846 9.884C383.05 10.46 383.152 11.108 383.152 11.828V12.152H380.776V11.828C380.776 11.528 380.74 11.228 380.668 10.928C380.596 10.628 380.476 10.358 380.308 10.118C380.14 9.878 379.912 9.686 379.624 9.542C379.336 9.386 378.976 9.308 378.544 9.308C378.148 9.308 377.806 9.386 377.518 9.542C377.23 9.686 376.99 9.89 376.798 10.154C376.606 10.406 376.462 10.706 376.366 11.054C376.282 11.39 376.24 11.744 376.24 12.116V15.284C376.24 15.692 376.282 16.07 376.366 16.418C376.45 16.754 376.582 17.048 376.762 17.3C376.942 17.552 377.176 17.75 377.464 17.894C377.764 18.026 378.124 18.092 378.544 18.092ZM394.173 15.644C394.173 16.388 394.047 17.048 393.795 17.624C393.543 18.188 393.201 18.668 392.769 19.064C392.337 19.448 391.839 19.742 391.275 19.946C390.723 20.15 390.141 20.252 389.529 20.252C388.917 20.252 388.329 20.15 387.765 19.946C387.213 19.742 386.721 19.448 386.289 19.064C385.857 18.668 385.515 18.188 385.263 17.624C385.011 17.048 384.885 16.388 384.885 15.644V15.428C384.885 14.696 385.011 14.048 385.263 13.484C385.515 12.908 385.857 12.422 386.289 12.026C386.721 11.63 387.213 11.33 387.765 11.126C388.329 10.922 388.917 10.82 389.529 10.82C390.141 10.82 390.723 10.922 391.275 11.126C391.839 11.33 392.337 11.63 392.769 12.026C393.201 12.422 393.543 12.908 393.795 13.484C394.047 14.048 394.173 14.696 394.173 15.428V15.644ZM389.529 18.092C389.853 18.092 390.159 18.038 390.447 17.93C390.735 17.822 390.987 17.666 391.203 17.462C391.419 17.258 391.587 17.012 391.707 16.724C391.839 16.424 391.905 16.088 391.905 15.716V15.356C391.905 14.984 391.839 14.654 391.707 14.366C391.587 14.066 391.419 13.814 391.203 13.61C390.987 13.406 390.735 13.25 390.447 13.142C390.159 13.034 389.853 12.98 389.529 12.98C389.205 12.98 388.899 13.034 388.611 13.142C388.323 13.25 388.071 13.406 387.855 13.61C387.639 13.814 387.465 14.066 387.333 14.366C387.213 14.654 387.153 14.984 387.153 15.356V15.716C387.153 16.088 387.213 16.424 387.333 16.724C387.465 17.012 387.639 17.258 387.855 17.462C388.071 17.666 388.323 17.822 388.611 17.93C388.899 18.038 389.205 18.092 389.529 18.092ZM398.715 20H396.447V11.072H398.715V12.404H399.039C399.243 11.9 399.573 11.51 400.029 11.234C400.485 10.958 401.019 10.82 401.631 10.82C402.063 10.82 402.465 10.892 402.837 11.036C403.221 11.168 403.557 11.378 403.845 11.666C404.133 11.954 404.355 12.32 404.511 12.764C404.679 13.208 404.763 13.736 404.763 14.348V20H402.495V14.924C402.495 14.288 402.339 13.79 402.027 13.43C401.727 13.058 401.289 12.872 400.713 12.872C400.041 12.872 399.537 13.1 399.201 13.556C398.877 14 398.715 14.6 398.715 15.356V20ZM407.216 11.072H409.862V7.4H412.13V11.072H415.352V13.232H412.13V17.3C412.13 17.66 412.292 17.84 412.616 17.84H415.028V20H411.248C410.84 20 410.504 19.868 410.24 19.604C409.988 19.34 409.862 19.004 409.862 18.596V13.232H407.216V11.072ZM424.268 18.704C424.028 19.268 423.692 19.67 423.26 19.91C422.828 20.138 422.324 20.252 421.748 20.252C421.208 20.252 420.698 20.15 420.218 19.946C419.75 19.742 419.336 19.442 418.976 19.046C418.616 18.65 418.328 18.17 418.112 17.606C417.908 17.042 417.806 16.4 417.806 15.68V15.392C417.806 14.684 417.908 14.048 418.112 13.484C418.316 12.92 418.592 12.44 418.94 12.044C419.288 11.648 419.69 11.348 420.146 11.144C420.614 10.928 421.112 10.82 421.64 10.82C422.276 10.82 422.786 10.928 423.17 11.144C423.566 11.36 423.878 11.696 424.106 12.152H424.43V11.072H426.698V17.3C426.698 17.66 426.86 17.84 427.184 17.84H427.526V20H425.978C425.57 20 425.234 19.88 424.97 19.64C424.718 19.4 424.592 19.088 424.592 18.704H424.268ZM422.252 18.092C422.912 18.092 423.44 17.876 423.836 17.444C424.232 17 424.43 16.4 424.43 15.644V15.428C424.43 14.672 424.232 14.078 423.836 13.646C423.44 13.202 422.912 12.98 422.252 12.98C421.592 12.98 421.064 13.202 420.668 13.646C420.272 14.078 420.074 14.672 420.074 15.428V15.644C420.074 16.4 420.272 17 420.668 17.444C421.064 17.876 421.592 18.092 422.252 18.092ZM438.223 16.724C438.019 17.78 437.533 18.632 436.765 19.28C436.009 19.928 434.995 20.252 433.723 20.252C433.063 20.252 432.445 20.15 431.869 19.946C431.305 19.742 430.813 19.448 430.393 19.064C429.973 18.68 429.643 18.206 429.403 17.642C429.163 17.078 429.043 16.436 429.043 15.716V15.5C429.043 14.78 429.163 14.132 429.403 13.556C429.643 12.98 429.973 12.488 430.393 12.08C430.825 11.672 431.323 11.36 431.887 11.144C432.463 10.928 433.075 10.82 433.723 10.82C434.971 10.82 435.979 11.144 436.747 11.792C437.527 12.44 438.019 13.292 438.223 14.348L435.991 14.924C435.919 14.396 435.691 13.94 435.307 13.556C434.923 13.172 434.383 12.98 433.687 12.98C433.363 12.98 433.057 13.04 432.769 13.16C432.481 13.28 432.229 13.454 432.013 13.682C431.797 13.898 431.623 14.168 431.491 14.492C431.371 14.804 431.311 15.158 431.311 15.554V15.662C431.311 16.058 431.371 16.412 431.491 16.724C431.623 17.024 431.797 17.276 432.013 17.48C432.229 17.684 432.481 17.84 432.769 17.948C433.057 18.044 433.363 18.092 433.687 18.092C434.383 18.092 434.911 17.918 435.271 17.57C435.643 17.222 435.883 16.754 435.991 16.166L438.223 16.724ZM440.281 11.072H442.927V7.4H445.195V11.072H448.417V13.232H445.195V17.3C445.195 17.66 445.357 17.84 445.681 17.84H448.093V20H444.313C443.905 20 443.569 19.868 443.305 19.604C443.053 19.34 442.927 19.004 442.927 18.596V13.232H440.281V11.072Z" fill="#222222"/>
</svg>
