<svg width="32" height="32" viewBox="0 0 32 32" fill="none" xmlns="http://www.w3.org/2000/svg">
<path d="M30.9996 3.80679C30.9996 3.06248 30.704 2.34866 30.1778 1.82236C29.6516 1.29605 28.9379 1.00038 28.1938 1.00038H21.7262C21.25 0.990944 20.7872 1.15829 20.427 1.47011C20.0669 1.78194 19.835 2.21613 19.7762 2.6889C19.7506 2.94948 19.7801 3.21252 19.8626 3.46101C19.9451 3.7095 20.0788 3.93789 20.2551 4.13143C20.4315 4.32497 20.6464 4.47934 20.8861 4.58456C21.1258 4.68978 21.385 4.7435 21.6467 4.74225H24.6116L19.1028 10.2522C19.0326 10.3221 18.9376 10.3614 18.8386 10.3614C18.7395 10.3614 18.6445 10.3221 18.5743 10.2522L15.6796 7.35689C15.2962 6.9732 14.8409 6.66883 14.3398 6.46117C13.8387 6.25351 13.3016 6.14663 12.7592 6.14663C12.2168 6.14663 11.6797 6.25351 11.1786 6.46117C10.6775 6.66883 10.2222 6.9732 9.83875 7.35689L6.28933 10.907L2.54818 14.6489C2.19719 14.9999 2 15.4761 2 15.9726C2 16.469 2.19719 16.9452 2.54818 17.2962C2.89918 17.6473 3.37523 17.8445 3.87161 17.8445C4.368 17.8445 4.84405 17.6473 5.19505 17.2962L7.1498 15.3411L12.495 9.99024C12.5651 9.92026 12.6601 9.88096 12.7592 9.88096C12.8582 9.88096 12.9533 9.92026 13.0234 9.99024L15.9181 12.8855C16.3016 13.2692 16.7569 13.5736 17.258 13.7812C17.7591 13.9889 18.2961 14.0958 18.8386 14.0958C19.381 14.0958 19.918 13.9889 20.4191 13.7812C20.9202 13.5736 21.3755 13.2692 21.759 12.8855L27.2585 7.38963V10.3551C27.2572 10.6169 27.3109 10.8761 27.4161 11.1158C27.5213 11.3556 27.6757 11.5706 27.8692 11.7469C28.0627 11.9233 28.291 12.057 28.5395 12.1396C28.7879 12.2221 29.0509 12.2515 29.3114 12.226C29.7841 12.1671 30.2182 11.9352 30.53 11.575C30.8417 11.2148 31.0091 10.7519 30.9996 10.2756V3.80679Z" fill="#68C2DE"/>
<path d="M7.61784 30.0008H25.8559C27.0962 30.0008 28.2857 29.508 29.1627 28.6308C30.0397 27.7537 30.5324 26.564 30.5324 25.3234V24.388V17.8397C30.5324 17.3435 30.3353 16.8676 29.9845 16.5167C29.6337 16.1659 29.1579 15.9688 28.6618 15.9688C28.1657 15.9688 27.6899 16.1659 27.3391 16.5167C26.9883 16.8676 26.7912 17.3435 26.7912 17.8397V24.8557V25.3234C26.7912 25.5715 26.6927 25.8095 26.5173 25.9849C26.3419 26.1604 26.104 26.2589 25.8559 26.2589H22.5824V20.6461C22.5824 20.1499 22.3854 19.674 22.0346 19.3231C21.6838 18.9723 21.208 18.7752 20.7119 18.7752C20.2158 18.7752 19.74 18.9723 19.3892 19.3231C19.0384 19.674 18.8413 20.1499 18.8413 20.6461V26.2589H14.6325V18.3074C14.6325 17.8112 14.4354 17.3353 14.0846 16.9845C13.7338 16.6336 13.258 16.4365 12.7619 16.4365C12.2658 16.4365 11.79 16.6336 11.4392 16.9845C11.0884 17.3353 10.8913 17.8112 10.8913 18.3074V26.2589H7.61784C7.36979 26.2589 7.1319 26.1604 6.9565 25.9849C6.7811 25.8095 6.68256 25.5715 6.68256 25.3234V24.388V22.9848C6.68256 22.4886 6.48548 22.0127 6.13468 21.6618C5.78388 21.3109 5.30809 21.1138 4.81198 21.1138C4.31587 21.1138 3.84009 21.3109 3.48929 21.6618C3.13848 22.0127 2.94141 22.4886 2.94141 22.9848V24.8557V25.3234C2.94141 26.564 3.4341 27.7537 4.3111 28.6308C5.18811 29.508 6.37758 30.0008 7.61784 30.0008Z" fill="#3897B5"/>
</svg>
