<svg width="29" height="29" viewBox="0 0 29 29" fill="none" xmlns="http://www.w3.org/2000/svg">
<path d="M28.9996 2.80679C28.9996 2.06248 28.704 1.34866 28.1778 0.822355C27.6516 0.296052 26.9379 0.000378235 26.1938 0.000378235H19.7262C19.25 -0.0090561 18.7872 0.158288 18.427 0.470112C18.0669 0.781936 17.835 1.21613 17.7762 1.6889C17.7506 1.94948 17.7801 2.21252 17.8626 2.46101C17.9451 2.7095 18.0788 2.93789 18.2551 3.13143C18.4315 3.32497 18.6464 3.47934 18.8861 3.58456C19.1258 3.68978 19.385 3.7435 19.6467 3.74225H22.6116L17.1028 9.25217C17.0326 9.32214 16.9376 9.36144 16.8386 9.36144C16.7395 9.36144 16.6445 9.32214 16.5743 9.25217L13.6796 6.35689C13.2962 5.9732 12.8409 5.66883 12.3398 5.46117C11.8387 5.25351 11.3016 5.14663 10.7592 5.14663C10.2168 5.14663 9.67968 5.25351 9.17859 5.46117C8.67749 5.66883 8.22221 5.9732 7.83875 6.35689L4.28933 9.907L0.548183 13.6489C0.197187 13.9999 -3.69834e-09 14.4761 0 14.9726C3.69834e-09 15.469 0.197187 15.9452 0.548183 16.2962C0.899179 16.6473 1.37523 16.8445 1.87161 16.8445C2.368 16.8445 2.84405 16.6473 3.19505 16.2962L5.1498 14.3411L10.495 8.99024C10.5651 8.92026 10.6601 8.88096 10.7592 8.88096C10.8582 8.88096 10.9533 8.92026 11.0234 8.99024L13.9181 11.8855C14.3016 12.2692 14.7569 12.5736 15.258 12.7812C15.7591 12.9889 16.2961 13.0958 16.8386 13.0958C17.381 13.0958 17.918 12.9889 18.4191 12.7812C18.9202 12.5736 19.3755 12.2692 19.759 11.8855L25.2585 6.38963V9.35507C25.2572 9.6169 25.3109 9.87607 25.4161 10.1158C25.5213 10.3556 25.6757 10.5706 25.8692 10.7469C26.0627 10.9233 26.291 11.057 26.5395 11.1396C26.7879 11.2221 27.0509 11.2515 27.3114 11.226C27.7841 11.1671 28.2182 10.9352 28.53 10.575C28.8417 10.2148 29.0091 9.75188 28.9996 9.27555V2.80679Z" fill="#68C2DE"/>
<path d="M5.61784 29.0008H23.8559C25.0962 29.0008 26.2857 28.508 27.1627 27.6308C28.0397 26.7537 28.5324 25.564 28.5324 24.3234V23.388V16.8397C28.5324 16.3435 28.3353 15.8676 27.9845 15.5167C27.6337 15.1659 27.1579 14.9688 26.6618 14.9688C26.1657 14.9688 25.6899 15.1659 25.3391 15.5167C24.9883 15.8676 24.7912 16.3435 24.7912 16.8397V23.8557V24.3234C24.7912 24.5715 24.6927 24.8095 24.5173 24.9849C24.3419 25.1604 24.104 25.2589 23.8559 25.2589H20.5824V19.6461C20.5824 19.1499 20.3854 18.674 20.0346 18.3231C19.6838 17.9723 19.208 17.7752 18.7119 17.7752C18.2158 17.7752 17.74 17.9723 17.3892 18.3231C17.0384 18.674 16.8413 19.1499 16.8413 19.6461V25.2589H12.6325V17.3074C12.6325 16.8112 12.4354 16.3353 12.0846 15.9845C11.7338 15.6336 11.258 15.4365 10.7619 15.4365C10.2658 15.4365 9.79003 15.6336 9.43923 15.9845C9.08843 16.3353 8.89135 16.8112 8.89135 17.3074V25.2589H5.61784C5.36979 25.2589 5.1319 25.1604 4.9565 24.9849C4.7811 24.8095 4.68256 24.5715 4.68256 24.3234V23.388V21.9848C4.68256 21.4886 4.48548 21.0127 4.13468 20.6618C3.78388 20.3109 3.30809 20.1138 2.81198 20.1138C2.31587 20.1138 1.84009 20.3109 1.48929 20.6618C1.13848 21.0127 0.941406 21.4886 0.941406 21.9848V23.8557V24.3234C0.941406 25.564 1.4341 26.7537 2.3111 27.6308C3.18811 28.508 4.37758 29.0008 5.61784 29.0008Z" fill="#3897B5"/>
</svg>
