<svg width="32" height="32" viewBox="0 0 32 32" fill="none" xmlns="http://www.w3.org/2000/svg">
<path d="M32 10.4202C31.9993 9.93647 31.8564 9.4459 31.5404 9.0415L29.0049 5.81134C28.5802 5.27443 27.934 5.00109 27.2882 5C26.9039 5 26.5126 5.09811 26.1668 5.31281L23.6946 6.84425C23.4346 7.00934 22.9888 7.12266 22.5582 7.11977C22.2237 7.12122 21.9005 7.0546 21.687 6.94961L19.266 5.78201C18.8755 5.59484 18.4403 5.51808 18.0025 5.51736C17.3738 5.52026 16.7371 5.67413 16.2254 6.02712L15.9429 6.22443C15.7171 6.1122 15.372 5.94131 14.9811 5.74762C14.5124 5.51881 13.9612 5.42649 13.4045 5.42468C12.9016 5.42613 12.3987 5.50324 11.9573 5.68897L10.3083 6.38952C10.0399 6.50538 9.61302 6.58105 9.18904 6.57924C8.76506 6.58105 8.33889 6.50538 8.07054 6.38952L6.42007 5.68861C6.119 5.56081 5.79719 5.50614 5.4783 5.50578C5.11104 5.50614 4.74597 5.57818 4.40671 5.71504C4.06782 5.85261 3.75329 6.05572 3.50275 6.33449L0.497798 9.68521C0.164722 10.0556 -0.000724853 10.5219 2.38699e-06 10.981C-0.000724853 11.5284 0.234537 12.0776 0.688335 12.4624L3.49148 14.8436L2.16172 16.2248C1.79519 16.6057 1.61266 17.0995 1.61266 17.5879C1.61193 18.1074 1.81919 18.632 2.22972 19.0183L2.49952 19.2736C2.7537 19.5136 3.05914 19.6664 3.37876 19.7479C3.2184 20.0415 3.13077 20.3633 3.1315 20.6859C3.13077 21.2058 3.33803 21.73 3.74783 22.1167L3.7471 22.1164L4.01764 22.3727C4.40271 22.7362 4.90196 22.9172 5.39394 22.9168C5.65829 22.9172 5.92301 22.8643 6.17172 22.7608C6.25899 23.1134 6.43935 23.4487 6.72297 23.7166L6.9935 23.9729C7.37857 24.3364 7.8771 24.5174 8.3698 24.5171C8.75488 24.5174 9.14177 24.4045 9.47484 24.1851C9.57229 24.4972 9.7392 24.7929 9.99337 25.0333L10.2639 25.2897C10.6482 25.6532 11.1475 25.8342 11.6395 25.8338C12.1634 25.8342 12.6925 25.6293 13.0834 25.223L14.2586 24.0011L15.8553 25.4725C16.2374 25.8255 16.728 26.0011 17.2123 26C17.7443 26.0011 18.281 25.7889 18.6726 25.3715L18.9275 25.0996C19.1475 24.8643 19.2911 24.5859 19.3744 24.2951L19.9929 24.8635C20.3758 25.2151 20.8656 25.39 21.3492 25.3896C21.8819 25.39 22.4201 25.1778 22.8121 24.76L23.0655 24.4885C23.3582 24.1771 23.5229 23.7915 23.5738 23.3976C23.7371 23.4393 23.9026 23.4675 24.0695 23.4675C24.6022 23.4675 25.1389 23.2557 25.5312 22.8383L25.7854 22.5667C26.1406 22.1877 26.3174 21.7014 26.3166 21.2221C26.3166 21.0733 26.2952 20.9252 26.2621 20.779C26.7039 20.7207 27.1322 20.5244 27.458 20.1762L27.7129 19.9043C28.0682 19.5252 28.2442 19.039 28.2442 18.5593C28.2449 18.0314 28.0311 17.4988 27.6093 17.1107L27.1326 16.6723L31.4349 11.936C31.8211 11.5095 31.9993 10.9607 32 10.4202ZM2.98059 18.2385C2.79369 18.0625 2.70133 17.8283 2.70061 17.5879C2.70133 17.3624 2.78242 17.1422 2.94932 16.9688L5.67283 14.1391C5.85028 13.9548 6.087 13.8625 6.3299 13.8621C6.55716 13.8625 6.77933 13.9439 6.95496 14.1087L7.22404 14.3643C7.22404 14.3643 7.50257 14.7745 7.5033 15.0152C7.50257 15.1955 7.44803 15.3711 7.34221 15.5232C7.33312 15.5322 4.40271 18.573 4.40271 18.573C4.24708 18.6827 4.06309 18.7392 3.87583 18.7399C3.64784 18.7392 3.42494 18.6581 3.25076 18.4937L2.98059 18.2385ZM5.39467 21.8387C5.16668 21.8383 4.9445 21.7568 4.7696 21.5925L4.49907 21.3365L4.49834 21.3361C4.3129 21.1609 4.21981 20.9259 4.21981 20.6856C4.21981 20.46 4.30162 20.2399 4.4678 20.0665C4.4678 20.0665 8.09818 16.3037 8.12872 16.2675C8.30217 16.1014 8.5258 16.0155 8.75669 16.0152C8.98468 16.0155 9.20686 16.0966 9.38176 16.2614L9.65229 16.5177C9.83846 16.6929 9.93082 16.9275 9.93155 17.1683C9.93082 17.3938 9.84901 17.6143 9.68283 17.7878L6.051 21.5624C5.87392 21.746 5.63756 21.8379 5.39467 21.8387ZM8.37053 23.4389C8.14254 23.4385 7.92037 23.3571 7.74547 23.1923L7.47421 22.9364C7.28803 22.7608 7.19495 22.5262 7.19495 22.2858C7.19495 22.0845 7.26367 21.8893 7.3953 21.7268L9.92355 19.0994C10.0941 18.9463 10.3079 18.8656 10.5293 18.8656C10.7573 18.8659 10.9795 18.947 11.1544 19.1117L11.4257 19.3681C11.6111 19.5433 11.7042 19.7779 11.7049 20.0183C11.7042 20.2442 11.6217 20.4647 11.4562 20.6378L9.0265 23.1623C8.84978 23.3462 8.61343 23.4382 8.37053 23.4389ZM12.2962 24.479C12.1195 24.663 11.8827 24.7549 11.6398 24.7557C11.4118 24.7553 11.1897 24.6738 11.0148 24.5091L10.7442 24.2531C10.5588 24.0779 10.4657 23.8429 10.465 23.6025C10.4657 23.3766 10.5475 23.1561 10.7137 22.9834L12.2471 21.3894C12.4245 21.2054 12.6612 21.1131 12.9041 21.1128C13.1314 21.1131 13.3543 21.1942 13.5292 21.3593L13.8005 21.6153C13.9859 21.7905 14.0783 22.0251 14.079 22.2655C14.0783 22.4914 13.9965 22.7119 13.8303 22.885L12.2962 24.479ZM26.9162 19.1711L26.6621 19.4427C26.4846 19.6316 26.2439 19.7272 25.9974 19.7276C25.7737 19.7272 25.5548 19.649 25.381 19.489L21.0976 15.5449L20.3569 16.3345L24.9418 20.5635C25.1327 20.7395 25.2287 20.9784 25.2301 21.2225C25.2287 21.4448 25.1498 21.6613 24.9887 21.8336L24.7352 22.1051C24.5578 22.2941 24.3171 22.3893 24.0705 22.3901C23.8469 22.3893 23.6273 22.3108 23.4549 22.1518L19.1704 18.2077L18.4304 18.9973L22.2328 22.4983C22.4161 22.6732 22.5099 22.906 22.5099 23.1449C22.5099 23.3665 22.431 23.5834 22.2699 23.7553L22.0157 24.0269C21.839 24.2158 21.5976 24.3114 21.3503 24.3121C21.126 24.3114 20.9071 24.2329 20.734 24.0739L16.9392 20.5856H16.9385L16.9378 20.5849L16.1993 21.376L16.2 21.3767L16.2142 21.3901L18.1148 23.1366C18.2832 23.3089 18.3704 23.5298 18.3712 23.7582C18.3704 23.9787 18.2923 24.1945 18.1312 24.3665L17.877 24.6383C17.6996 24.8273 17.4596 24.9222 17.2138 24.9229C16.9901 24.9222 16.7712 24.844 16.5982 24.6843L14.9433 23.1587C15.0873 22.8774 15.1677 22.5722 15.1677 22.2659C15.1684 21.7463 14.9611 21.2225 14.5513 20.8354L14.2801 20.5791C13.8957 20.216 13.3972 20.0346 12.9052 20.0353C12.8671 20.0353 12.8285 20.044 12.7911 20.0462C12.7911 20.0371 12.7932 20.0277 12.7932 20.0187C12.794 19.4991 12.1769 18.5875 12.1769 18.5875L11.9064 18.3319C11.6187 18.0604 11.2679 17.8909 10.9028 17.8229C10.978 17.6107 11.0206 17.3899 11.0206 17.1687C11.0206 16.6491 10.8141 16.1249 10.4043 15.7382L10.1337 15.4819C9.74865 15.1184 9.25013 14.937 8.75815 14.9374C8.7007 14.9374 8.64397 14.949 8.58688 14.954C8.57125 14.4551 8.36944 13.9566 7.97673 13.5851L7.70692 13.3295C7.32185 12.9657 6.82333 12.7843 6.33135 12.7847C5.80665 12.7843 5.27831 12.9892 4.88742 13.3954L4.24454 14.0634L1.39667 11.645C1.19195 11.4704 1.08977 11.2293 1.08904 10.9817C1.08977 10.7742 1.16068 10.5711 1.31194 10.4024L4.3169 7.0517C4.43616 6.91847 4.61252 6.79791 4.81906 6.71428C5.02559 6.63065 5.26013 6.58467 5.47939 6.58503C5.67029 6.58503 5.84955 6.61942 5.99282 6.68097L7.64256 7.38189C8.10763 7.57703 8.64761 7.65704 9.19013 7.65885C9.73338 7.65704 10.2726 7.57703 10.7377 7.38189L12.3867 6.68133C12.6409 6.57091 13.0245 6.50248 13.4059 6.50393C13.8277 6.5014 14.2503 6.58829 14.4953 6.71283C14.651 6.78994 14.7986 6.86308 14.9357 6.9315L13.2539 8.10851C12.7136 8.48685 12.4223 9.08856 12.4231 9.69571C12.4223 10.0976 12.5503 10.5067 12.8107 10.8539L12.81 10.8532L13.0321 11.1504C13.4539 11.7087 14.1117 11.9958 14.7691 11.9972C15.1404 11.9972 15.5186 11.9038 15.8556 11.7025L16.8614 11.1012C17.0665 10.9763 17.3763 10.8973 17.6967 10.8988C18.073 10.8966 18.4523 11.0074 18.6802 11.1743L21.4627 13.1605C22.0819 13.6022 23.0906 14.4215 23.6495 14.937L26.8701 17.9018C27.061 18.0781 27.1569 18.316 27.1577 18.5604C27.1573 18.7819 27.0777 18.9988 26.9162 19.1711ZM30.6273 11.2152L26.337 15.9388L24.3891 14.146C23.7789 13.5851 22.7728 12.7673 22.0979 12.2847L19.3162 10.2985C18.8446 9.96579 18.2672 9.82206 17.6963 9.81989C17.2105 9.82134 16.7211 9.92669 16.2985 10.1772L15.2935 10.7786C15.1393 10.8709 14.9575 10.918 14.7688 10.9183C14.4313 10.9194 14.0935 10.7627 13.9052 10.5074L13.6837 10.2105L13.683 10.2098C13.5652 10.0516 13.5103 9.8742 13.5096 9.69462C13.511 9.42309 13.6368 9.15952 13.8805 8.98828L16.8541 6.90797C17.1112 6.72261 17.5687 6.59263 18.0032 6.59589C18.305 6.59444 18.5933 6.6549 18.7908 6.75193L21.2118 7.91952C21.6245 8.11684 22.0903 8.19757 22.559 8.19866C23.1611 8.19576 23.7698 8.06543 24.2713 7.75877L26.7442 6.22697C26.9021 6.12885 27.0915 6.07817 27.2889 6.07817C27.6227 6.07744 27.9573 6.22805 28.1467 6.47388L30.6822 9.70404C30.8284 9.88904 30.9131 10.1501 30.9131 10.4205C30.9135 10.7232 30.8062 11.0208 30.6273 11.2152Z" fill="#85D8F2"/>
</svg>
