<svg width="272" height="125" viewBox="0 0 272 125" fill="none" xmlns="http://www.w3.org/2000/svg">
<g clip-path="url(#clip0_411_168)">
<path d="M68.4 -0.800049C49.7632 -0.800049 34.6 20.76 34.6 47.2644C34.6 60.9565 38.6689 73.286 45.1575 82.0343C44.9129 83.3476 44.9606 84.6986 45.2969 85.9914C45.6333 87.2841 46.2502 88.487 47.1037 89.5146C47.9573 90.5421 49.0266 91.3692 50.2357 91.937C51.4449 92.5048 52.7642 92.7994 54.1 92.7999C56.5135 92.7999 58.8281 91.8412 60.5347 90.1346C62.2413 88.428 63.2 86.1134 63.2 83.7C63.2 81.2865 62.2413 78.9719 60.5347 77.2653C58.8281 75.5587 56.5135 74.5999 54.1 74.5999C53.6047 74.6037 53.1105 74.6478 52.6223 74.732C47.9733 67.8068 45 57.9898 45 47.2644C45 26.8466 55.7172 9.59995 68.4 9.59995C79.1094 9.59995 88.3918 21.9174 91.0282 38.0374C94.7253 39.0983 98.4084 40.5333 102.017 42.2675C100.254 18.1031 85.8512 -0.800049 68.4 -0.800049ZM64.5 38.2C62.0866 38.2 59.7719 39.1587 58.0654 40.8653C56.3588 42.5719 55.4 44.8865 55.4 47.2999C55.4 49.7134 56.3588 52.028 58.0654 53.7346C59.7719 55.4412 62.0866 56.3999 64.5 56.3999C66.2011 56.399 67.8679 55.9213 69.3112 55.021C70.7546 54.1208 71.9167 52.8339 72.6656 51.3066C81.115 50.7774 90.8799 53.3843 99.8946 58.7867C117.731 69.4805 127.43 88.1799 121.07 99.6199C118.98 103.379 115.214 106.083 110.178 107.43C102.926 109.37 94.034 108.383 85.2746 104.86C82.4952 107.445 79.4393 109.871 76.1035 112.102C84.7563 116.473 93.9073 118.79 102.363 118.79C106.029 118.79 109.567 118.359 112.869 117.475C120.687 115.382 126.668 110.954 130.16 104.673C139.479 87.9052 128.533 63.8315 105.242 49.8695C94.1594 43.2228 81.8824 40.1599 71.0914 41.0437C70.243 40.1475 69.2211 39.4333 68.088 38.9444C66.9549 38.4555 65.7341 38.2022 64.5 38.2ZM29.8164 54.6429C11.4058 68.8675 3.50935 89.6784 11.845 104.673C15.3368 110.954 21.3178 115.382 29.136 117.475C32.4406 118.359 35.9714 118.79 39.6426 118.79C49.5226 118.79 60.3661 115.653 70.2383 109.735C81.2827 103.114 89.449 94.2136 94.0801 84.9035C98.633 84.4075 102.2 80.5826 102.2 75.8999C102.2 70.882 98.118 66.7999 93.1 66.7999C88.082 66.7999 84 70.882 84 75.8999C84 77.3045 84.3434 78.6212 84.9141 79.8101C81.1599 87.5445 74.155 95.258 64.891 100.813C53.7214 107.511 41.3591 109.986 31.8223 107.43C26.7887 106.083 23.0252 103.379 20.9348 99.6199C15.9064 90.5719 20.9404 77.001 32.0762 66.4242C31.0076 62.6802 30.2428 58.7379 29.8164 54.6429Z" fill="black"/>
</g>
<defs>
<clipPath id="clip0_411_168">
<rect width="271.619" height="124" fill="white" transform="translate(0 0.5)"/>
</clipPath>
</defs>
</svg>
