<svg width="1600" height="191" viewBox="0 0 1600 191" fill="none" xmlns="http://www.w3.org/2000/svg">
<g opacity="0.3">
<rect width="1600" height="191" fill="white"/>
<g clip-path="url(#clip0_411_167)">
<path d="M108.4 32.2C89.7632 32.2 74.6 53.76 74.6 80.2644C74.6 93.9565 78.6689 106.286 85.1575 115.034C84.9129 116.348 84.9606 117.699 85.2969 118.991C85.6333 120.284 86.2502 121.487 87.1037 122.515C87.9573 123.542 89.0266 124.369 90.2357 124.937C91.4449 125.505 92.7642 125.799 94.1 125.8C96.5135 125.8 98.8281 124.841 100.535 123.135C102.241 121.428 103.2 119.113 103.2 116.7C103.2 114.286 102.241 111.972 100.535 110.265C98.8281 108.559 96.5135 107.6 94.1 107.6C93.6047 107.604 93.1105 107.648 92.6223 107.732C87.9733 100.807 85 90.9898 85 80.2644C85 59.8466 95.7172 42.6 108.4 42.6C119.109 42.6 128.392 54.9174 131.028 71.0374C134.725 72.0983 138.408 73.5333 142.017 75.2675C140.254 51.1031 125.851 32.2 108.4 32.2ZM104.5 71.2C102.087 71.2 99.7719 72.1587 98.0654 73.8653C96.3588 75.5719 95.4 77.8865 95.4 80.2999C95.4 82.7134 96.3588 85.028 98.0654 86.7346C99.7719 88.4412 102.087 89.3999 104.5 89.3999C106.201 89.399 107.868 88.9213 109.311 88.021C110.755 87.1208 111.917 85.8339 112.666 84.3066C121.115 83.7774 130.88 86.3843 139.895 91.7867C157.731 102.48 167.43 121.18 161.07 132.62C158.98 136.379 155.214 139.083 150.178 140.43C142.926 142.37 134.034 141.383 125.275 137.86C122.495 140.445 119.439 142.871 116.104 145.102C124.756 149.473 133.907 151.79 142.363 151.79C146.029 151.79 149.567 151.359 152.869 150.475C160.687 148.382 166.668 143.954 170.16 137.673C179.479 120.905 168.533 96.8315 145.242 82.8695C134.159 76.2228 121.882 73.1599 111.091 74.0437C110.243 73.1475 109.221 72.4333 108.088 71.9444C106.955 71.4555 105.734 71.2022 104.5 71.2ZM69.8164 87.6429C51.4058 101.868 43.5094 122.678 51.845 137.673C55.3368 143.954 61.3178 148.382 69.136 150.475C72.4406 151.359 75.9714 151.79 79.6426 151.79C89.5226 151.79 100.366 148.653 110.238 142.735C121.283 136.114 129.449 127.214 134.08 117.903C138.633 117.408 142.2 113.583 142.2 108.9C142.2 103.882 138.118 99.7999 133.1 99.7999C128.082 99.7999 124 103.882 124 108.9C124 110.305 124.343 111.621 124.914 112.81C121.16 120.545 114.155 128.258 104.891 133.813C93.7214 140.511 81.3591 142.986 71.8223 140.43C66.7887 139.083 63.0252 136.379 60.9348 132.62C55.9064 123.572 60.9404 110.001 72.0762 99.4242C71.0076 95.6802 70.2428 91.7379 69.8164 87.6429Z" fill="black"/>
</g>
<path d="M1116.65 98.3H1112.37L1111.75 101H1109.27L1112.28 88.4H1116.74L1119.75 101H1117.26L1116.65 98.3ZM1112.87 96.032H1116.13L1114.67 89.588H1114.35L1112.87 96.032ZM1123.32 101H1121.05V88.4H1123.32V93.368H1123.64C1123.88 92.876 1124.23 92.498 1124.68 92.234C1125.14 91.958 1125.72 91.82 1126.43 91.82C1126.96 91.82 1127.46 91.922 1127.92 92.126C1128.4 92.33 1128.82 92.63 1129.17 93.026C1129.53 93.41 1129.81 93.884 1130.01 94.448C1130.23 95.012 1130.34 95.654 1130.34 96.374V96.698C1130.34 97.43 1130.23 98.078 1130.03 98.642C1129.83 99.206 1129.55 99.686 1129.2 100.082C1128.85 100.466 1128.44 100.76 1127.96 100.964C1127.49 101.156 1126.98 101.252 1126.43 101.252C1126.02 101.252 1125.67 101.21 1125.37 101.126C1125.07 101.042 1124.8 100.928 1124.58 100.784C1124.36 100.64 1124.17 100.478 1124.02 100.298C1123.87 100.106 1123.75 99.908 1123.64 99.704H1123.32V101ZM1125.69 99.092C1126.4 99.092 1126.97 98.876 1127.4 98.444C1127.85 98 1128.07 97.4 1128.07 96.644V96.428C1128.07 95.672 1127.85 95.078 1127.4 94.646C1126.97 94.202 1126.4 93.98 1125.69 93.98C1124.98 93.98 1124.41 94.208 1123.96 94.664C1123.53 95.108 1123.32 95.696 1123.32 96.428V96.644C1123.32 97.376 1123.53 97.97 1123.96 98.426C1124.41 98.87 1124.98 99.092 1125.69 99.092ZM1141.19 96.644C1141.19 97.388 1141.07 98.048 1140.82 98.624C1140.56 99.188 1140.22 99.668 1139.79 100.064C1139.36 100.448 1138.86 100.742 1138.3 100.946C1137.74 101.15 1137.16 101.252 1136.55 101.252C1135.94 101.252 1135.35 101.15 1134.79 100.946C1134.23 100.742 1133.74 100.448 1133.31 100.064C1132.88 99.668 1132.54 99.188 1132.28 98.624C1132.03 98.048 1131.91 97.388 1131.91 96.644V96.428C1131.91 95.696 1132.03 95.048 1132.28 94.484C1132.54 93.908 1132.88 93.422 1133.31 93.026C1133.74 92.63 1134.23 92.33 1134.79 92.126C1135.35 91.922 1135.94 91.82 1136.55 91.82C1137.16 91.82 1137.74 91.922 1138.3 92.126C1138.86 92.33 1139.36 92.63 1139.79 93.026C1140.22 93.422 1140.56 93.908 1140.82 94.484C1141.07 95.048 1141.19 95.696 1141.19 96.428V96.644ZM1136.55 99.092C1136.87 99.092 1137.18 99.038 1137.47 98.93C1137.76 98.822 1138.01 98.666 1138.22 98.462C1138.44 98.258 1138.61 98.012 1138.73 97.724C1138.86 97.424 1138.93 97.088 1138.93 96.716V96.356C1138.93 95.984 1138.86 95.654 1138.73 95.366C1138.61 95.066 1138.44 94.814 1138.22 94.61C1138.01 94.406 1137.76 94.25 1137.47 94.142C1137.18 94.034 1136.87 93.98 1136.55 93.98C1136.23 93.98 1135.92 94.034 1135.63 94.142C1135.34 94.25 1135.09 94.406 1134.88 94.61C1134.66 94.814 1134.49 95.066 1134.35 95.366C1134.23 95.654 1134.17 95.984 1134.17 96.356V96.716C1134.17 97.088 1134.23 97.424 1134.35 97.724C1134.49 98.012 1134.66 98.258 1134.88 98.462C1135.09 98.666 1135.34 98.822 1135.63 98.93C1135.92 99.038 1136.23 99.092 1136.55 99.092ZM1149.52 92.072H1151.78V101H1149.52V99.704H1149.19C1148.8 100.736 1147.94 101.252 1146.64 101.252C1146.19 101.252 1145.78 101.18 1145.39 101.036C1145.01 100.892 1144.67 100.67 1144.39 100.37C1144.1 100.07 1143.87 99.698 1143.7 99.254C1143.55 98.798 1143.47 98.264 1143.47 97.652V92.072H1145.74V97.184C1145.74 97.82 1145.89 98.318 1146.19 98.678C1146.49 99.026 1146.94 99.2 1147.54 99.2C1148.22 99.2 1148.72 98.984 1149.03 98.552C1149.35 98.108 1149.52 97.508 1149.52 96.752V92.072ZM1154.24 92.072H1156.88V88.4H1159.15V92.072H1162.37V94.232H1159.15V98.3C1159.15 98.66 1159.31 98.84 1159.64 98.84H1162.05V101H1158.27C1157.86 101 1157.53 100.868 1157.26 100.604C1157.01 100.34 1156.88 100.004 1156.88 99.596V94.232H1154.24V92.072Z" fill="#222222"/>
<path d="M1205.83 98.732H1207.02V90.668H1205.83V88.4H1211.35C1211.95 88.4 1212.48 88.484 1212.94 88.652C1213.41 88.82 1213.8 89.048 1214.11 89.336C1214.43 89.624 1214.67 89.972 1214.83 90.38C1215 90.776 1215.08 91.208 1215.08 91.676V91.892C1215.08 92.612 1214.88 93.188 1214.47 93.62C1214.07 94.052 1213.57 94.352 1212.96 94.52V94.844C1213.57 95.012 1214.07 95.318 1214.47 95.762C1214.88 96.194 1215.08 96.77 1215.08 97.49V97.706C1215.08 98.174 1215 98.612 1214.83 99.02C1214.67 99.416 1214.43 99.764 1214.11 100.064C1213.8 100.352 1213.41 100.58 1212.94 100.748C1212.48 100.916 1211.95 101 1211.35 101H1205.83V98.732ZM1209.39 98.732H1211.12C1211.62 98.732 1212.03 98.624 1212.34 98.408C1212.66 98.192 1212.81 97.832 1212.81 97.328V97.22C1212.81 96.716 1212.66 96.356 1212.34 96.14C1212.03 95.924 1211.62 95.816 1211.12 95.816H1209.39V98.732ZM1209.39 93.548H1211.12C1211.62 93.548 1212.03 93.446 1212.34 93.242C1212.66 93.026 1212.81 92.666 1212.81 92.162V92.054C1212.81 91.55 1212.66 91.196 1212.34 90.992C1212.03 90.776 1211.62 90.668 1211.12 90.668H1209.39V93.548ZM1217.37 98.84H1220.5V90.56H1217.48V88.4H1222.77V98.84H1225.69V101H1217.37V98.84ZM1237.19 96.644C1237.19 97.388 1237.07 98.048 1236.82 98.624C1236.56 99.188 1236.22 99.668 1235.79 100.064C1235.36 100.448 1234.86 100.742 1234.3 100.946C1233.74 101.15 1233.16 101.252 1232.55 101.252C1231.94 101.252 1231.35 101.15 1230.79 100.946C1230.23 100.742 1229.74 100.448 1229.31 100.064C1228.88 99.668 1228.54 99.188 1228.28 98.624C1228.03 98.048 1227.91 97.388 1227.91 96.644V96.428C1227.91 95.696 1228.03 95.048 1228.28 94.484C1228.54 93.908 1228.88 93.422 1229.31 93.026C1229.74 92.63 1230.23 92.33 1230.79 92.126C1231.35 91.922 1231.94 91.82 1232.55 91.82C1233.16 91.82 1233.74 91.922 1234.3 92.126C1234.86 92.33 1235.36 92.63 1235.79 93.026C1236.22 93.422 1236.56 93.908 1236.82 94.484C1237.07 95.048 1237.19 95.696 1237.19 96.428V96.644ZM1232.55 99.092C1232.87 99.092 1233.18 99.038 1233.47 98.93C1233.76 98.822 1234.01 98.666 1234.22 98.462C1234.44 98.258 1234.61 98.012 1234.73 97.724C1234.86 97.424 1234.93 97.088 1234.93 96.716V96.356C1234.93 95.984 1234.86 95.654 1234.73 95.366C1234.61 95.066 1234.44 94.814 1234.22 94.61C1234.01 94.406 1233.76 94.25 1233.47 94.142C1233.18 94.034 1232.87 93.98 1232.55 93.98C1232.23 93.98 1231.92 94.034 1231.63 94.142C1231.34 94.25 1231.09 94.406 1230.88 94.61C1230.66 94.814 1230.49 95.066 1230.35 95.366C1230.23 95.654 1230.17 95.984 1230.17 96.356V96.716C1230.17 97.088 1230.23 97.424 1230.35 97.724C1230.49 98.012 1230.66 98.258 1230.88 98.462C1231.09 98.666 1231.34 98.822 1231.63 98.93C1231.92 99.038 1232.23 99.092 1232.55 99.092ZM1245.84 99.704H1245.52C1245.42 99.908 1245.3 100.106 1245.16 100.298C1245.02 100.478 1244.84 100.64 1244.62 100.784C1244.4 100.928 1244.14 101.042 1243.82 101.126C1243.52 101.21 1243.16 101.252 1242.73 101.252C1242.17 101.252 1241.66 101.156 1241.18 100.964C1240.71 100.76 1240.3 100.466 1239.94 100.082C1239.59 99.686 1239.31 99.206 1239.11 98.642C1238.92 98.078 1238.82 97.43 1238.82 96.698V96.374C1238.82 95.654 1238.92 95.012 1239.13 94.448C1239.34 93.884 1239.63 93.41 1239.99 93.026C1240.36 92.63 1240.79 92.33 1241.27 92.126C1241.76 91.922 1242.28 91.82 1242.82 91.82C1243.54 91.82 1244.11 91.958 1244.53 92.234C1244.95 92.498 1245.28 92.876 1245.52 93.368H1245.84V92.072H1248.11V103.196C1248.11 103.604 1247.98 103.94 1247.71 104.204C1247.46 104.468 1247.13 104.6 1246.72 104.6H1240.71V102.44H1245.35C1245.68 102.44 1245.84 102.26 1245.84 101.9V99.704ZM1243.46 99.092C1244.17 99.092 1244.74 98.87 1245.17 98.426C1245.62 97.97 1245.84 97.376 1245.84 96.644V96.428C1245.84 95.696 1245.62 95.108 1245.17 94.664C1244.74 94.208 1244.17 93.98 1243.46 93.98C1242.76 93.98 1242.18 94.202 1241.74 94.646C1241.3 95.078 1241.09 95.672 1241.09 96.428V96.644C1241.09 97.4 1241.3 98 1241.74 98.444C1242.18 98.876 1242.76 99.092 1243.46 99.092Z" fill="#222222"/>
<path d="M1290.97 88.4H1300.04V90.668H1296.7V101H1294.32V90.668H1290.97V88.4ZM1304.42 97.274C1304.44 97.538 1304.5 97.784 1304.6 98.012C1304.72 98.228 1304.88 98.42 1305.07 98.588C1305.28 98.744 1305.5 98.87 1305.76 98.966C1306.02 99.05 1306.3 99.092 1306.58 99.092C1307.15 99.092 1307.58 98.996 1307.88 98.804C1308.18 98.6 1308.4 98.36 1308.53 98.084L1310.47 99.164C1310.36 99.392 1310.21 99.632 1310.02 99.884C1309.83 100.124 1309.58 100.346 1309.27 100.55C1308.97 100.754 1308.59 100.922 1308.15 101.054C1307.72 101.186 1307.21 101.252 1306.62 101.252C1305.95 101.252 1305.34 101.144 1304.78 100.928C1304.23 100.712 1303.75 100.4 1303.34 99.992C1302.95 99.584 1302.64 99.086 1302.41 98.498C1302.19 97.91 1302.08 97.244 1302.08 96.5V96.392C1302.08 95.708 1302.2 95.084 1302.43 94.52C1302.67 93.956 1302.99 93.476 1303.4 93.08C1303.81 92.684 1304.28 92.378 1304.82 92.162C1305.37 91.934 1305.96 91.82 1306.58 91.82C1307.35 91.82 1308.01 91.958 1308.56 92.234C1309.12 92.498 1309.57 92.84 1309.93 93.26C1310.29 93.668 1310.56 94.124 1310.72 94.628C1310.89 95.12 1310.98 95.6 1310.98 96.068V97.274H1304.42ZM1306.57 93.872C1305.99 93.872 1305.52 94.022 1305.16 94.322C1304.8 94.61 1304.57 94.946 1304.46 95.33H1308.67C1308.6 94.91 1308.37 94.562 1307.99 94.286C1307.62 94.01 1307.14 93.872 1306.57 93.872ZM1319.22 99.704C1318.98 100.268 1318.65 100.67 1318.22 100.91C1317.78 101.138 1317.28 101.252 1316.7 101.252C1316.16 101.252 1315.65 101.15 1315.17 100.946C1314.71 100.742 1314.29 100.442 1313.93 100.046C1313.57 99.65 1313.28 99.17 1313.07 98.606C1312.86 98.042 1312.76 97.4 1312.76 96.68V96.392C1312.76 95.684 1312.86 95.048 1313.07 94.484C1313.27 93.92 1313.55 93.44 1313.9 93.044C1314.24 92.648 1314.65 92.348 1315.1 92.144C1315.57 91.928 1316.07 91.82 1316.6 91.82C1317.23 91.82 1317.74 91.928 1318.13 92.144C1318.52 92.36 1318.83 92.696 1319.06 93.152H1319.39V92.072H1321.65V98.3C1321.65 98.66 1321.82 98.84 1322.14 98.84H1322.48V101H1320.93C1320.53 101 1320.19 100.88 1319.93 100.64C1319.67 100.4 1319.55 100.088 1319.55 99.704H1319.22ZM1317.21 99.092C1317.87 99.092 1318.4 98.876 1318.79 98.444C1319.19 98 1319.39 97.4 1319.39 96.644V96.428C1319.39 95.672 1319.19 95.078 1318.79 94.646C1318.4 94.202 1317.87 93.98 1317.21 93.98C1316.55 93.98 1316.02 94.202 1315.62 94.646C1315.23 95.078 1315.03 95.672 1315.03 96.428V96.644C1315.03 97.4 1315.23 98 1315.62 98.444C1316.02 98.876 1316.55 99.092 1317.21 99.092ZM1333.43 101H1331.16V94.736C1331.16 94.484 1331.1 94.298 1330.97 94.178C1330.85 94.046 1330.68 93.98 1330.48 93.98C1330.24 93.98 1330.05 94.052 1329.9 94.196C1329.77 94.34 1329.71 94.556 1329.71 94.844V101H1327.44V94.736C1327.44 94.484 1327.37 94.298 1327.22 94.178C1327.09 94.046 1326.93 93.98 1326.74 93.98C1326.52 93.98 1326.34 94.052 1326.2 94.196C1326.05 94.34 1325.98 94.556 1325.98 94.844V101H1323.71V92.072H1325.98V92.936H1326.3C1326.38 92.612 1326.54 92.348 1326.79 92.144C1327.05 91.928 1327.4 91.82 1327.82 91.82C1328.21 91.82 1328.55 91.928 1328.82 92.144C1329.1 92.348 1329.29 92.612 1329.38 92.936H1329.71C1329.8 92.612 1330 92.348 1330.3 92.144C1330.61 91.928 1331 91.82 1331.45 91.82C1332.05 91.82 1332.53 92.024 1332.89 92.432C1333.25 92.828 1333.43 93.38 1333.43 94.088V101Z" fill="#222222"/>
<path d="M1380.54 99.092C1381 99.092 1381.37 99.026 1381.66 98.894C1381.96 98.75 1382.19 98.564 1382.34 98.336C1382.51 98.096 1382.63 97.826 1382.69 97.526C1382.75 97.214 1382.78 96.896 1382.78 96.572V96.248H1385.15V96.572C1385.15 98.072 1384.76 99.23 1383.96 100.046C1383.18 100.85 1382.04 101.252 1380.54 101.252C1379.1 101.252 1377.96 100.814 1377.12 99.938C1376.28 99.062 1375.86 97.784 1375.86 96.104V93.296C1375.86 92.492 1375.97 91.772 1376.19 91.136C1376.4 90.488 1376.72 89.948 1377.12 89.516C1377.53 89.072 1378.02 88.736 1378.6 88.508C1379.18 88.268 1379.82 88.148 1380.54 88.148C1381.29 88.148 1381.95 88.256 1382.52 88.472C1383.1 88.688 1383.58 89 1383.96 89.408C1384.36 89.816 1384.65 90.308 1384.85 90.884C1385.05 91.46 1385.15 92.108 1385.15 92.828V93.152H1382.78V92.828C1382.78 92.528 1382.74 92.228 1382.67 91.928C1382.6 91.628 1382.48 91.358 1382.31 91.118C1382.14 90.878 1381.91 90.686 1381.62 90.542C1381.34 90.386 1380.98 90.308 1380.54 90.308C1380.15 90.308 1379.81 90.386 1379.52 90.542C1379.23 90.686 1378.99 90.89 1378.8 91.154C1378.61 91.406 1378.46 91.706 1378.37 92.054C1378.28 92.39 1378.24 92.744 1378.24 93.116V96.284C1378.24 96.692 1378.28 97.07 1378.37 97.418C1378.45 97.754 1378.58 98.048 1378.76 98.3C1378.94 98.552 1379.18 98.75 1379.46 98.894C1379.76 99.026 1380.12 99.092 1380.54 99.092ZM1393.2 99.704C1392.96 100.268 1392.63 100.67 1392.2 100.91C1391.76 101.138 1391.26 101.252 1390.68 101.252C1390.14 101.252 1389.63 101.15 1389.15 100.946C1388.69 100.742 1388.27 100.442 1387.91 100.046C1387.55 99.65 1387.26 99.17 1387.05 98.606C1386.84 98.042 1386.74 97.4 1386.74 96.68V96.392C1386.74 95.684 1386.84 95.048 1387.05 94.484C1387.25 93.92 1387.53 93.44 1387.88 93.044C1388.22 92.648 1388.63 92.348 1389.08 92.144C1389.55 91.928 1390.05 91.82 1390.58 91.82C1391.21 91.82 1391.72 91.928 1392.11 92.144C1392.5 92.36 1392.81 92.696 1393.04 93.152H1393.37V92.072H1395.63V98.3C1395.63 98.66 1395.8 98.84 1396.12 98.84H1396.46V101H1394.91C1394.51 101 1394.17 100.88 1393.91 100.64C1393.65 100.4 1393.53 100.088 1393.53 99.704H1393.2ZM1391.19 99.092C1391.85 99.092 1392.38 98.876 1392.77 98.444C1393.17 98 1393.37 97.4 1393.37 96.644V96.428C1393.37 95.672 1393.17 95.078 1392.77 94.646C1392.38 94.202 1391.85 93.98 1391.19 93.98C1390.53 93.98 1390 94.202 1389.6 94.646C1389.21 95.078 1389.01 95.672 1389.01 96.428V96.644C1389.01 97.4 1389.21 98 1389.6 98.444C1390 98.876 1390.53 99.092 1391.19 99.092ZM1398.01 92.072H1401.79V93.368H1402.12C1402.29 92.876 1402.57 92.498 1402.96 92.234C1403.37 91.958 1403.86 91.82 1404.42 91.82C1405.31 91.82 1406.02 92.102 1406.56 92.666C1407.1 93.218 1407.37 94.064 1407.37 95.204V95.6L1405.03 95.816V95.564C1405.03 95.072 1404.91 94.682 1404.66 94.394C1404.4 94.094 1404.03 93.944 1403.52 93.944C1403.02 93.944 1402.62 94.118 1402.33 94.466C1402.05 94.814 1401.9 95.312 1401.9 95.96V98.84H1403.95V101H1397.8V98.84H1399.63V94.232H1398.01V92.072ZM1411.47 97.274C1411.48 97.538 1411.54 97.784 1411.65 98.012C1411.77 98.228 1411.92 98.42 1412.11 98.588C1412.32 98.744 1412.55 98.87 1412.8 98.966C1413.06 99.05 1413.34 99.092 1413.63 99.092C1414.19 99.092 1414.62 98.996 1414.92 98.804C1415.22 98.6 1415.44 98.36 1415.57 98.084L1417.51 99.164C1417.41 99.392 1417.26 99.632 1417.06 99.884C1416.87 100.124 1416.62 100.346 1416.31 100.55C1416.01 100.754 1415.64 100.922 1415.19 101.054C1414.76 101.186 1414.25 101.252 1413.66 101.252C1412.99 101.252 1412.38 101.144 1411.83 100.928C1411.27 100.712 1410.79 100.4 1410.39 99.992C1409.99 99.584 1409.68 99.086 1409.45 98.498C1409.23 97.91 1409.13 97.244 1409.13 96.5V96.392C1409.13 95.708 1409.24 95.084 1409.47 94.52C1409.71 93.956 1410.03 93.476 1410.44 93.08C1410.85 92.684 1411.32 92.378 1411.86 92.162C1412.41 91.934 1413 91.82 1413.63 91.82C1414.39 91.82 1415.05 91.958 1415.61 92.234C1416.16 92.498 1416.61 92.84 1416.97 93.26C1417.33 93.668 1417.6 94.124 1417.77 94.628C1417.93 95.12 1418.02 95.6 1418.02 96.068V97.274H1411.47ZM1413.61 93.872C1413.03 93.872 1412.56 94.022 1412.2 94.322C1411.84 94.61 1411.61 94.946 1411.5 95.33H1415.71C1415.64 94.91 1415.41 94.562 1415.03 94.286C1414.66 94.01 1414.18 93.872 1413.61 93.872ZM1422.49 97.274C1422.5 97.538 1422.56 97.784 1422.67 98.012C1422.79 98.228 1422.94 98.42 1423.14 98.588C1423.34 98.744 1423.57 98.87 1423.82 98.966C1424.08 99.05 1424.36 99.092 1424.65 99.092C1425.21 99.092 1425.64 98.996 1425.94 98.804C1426.24 98.6 1426.46 98.36 1426.59 98.084L1428.54 99.164C1428.43 99.392 1428.28 99.632 1428.09 99.884C1427.89 100.124 1427.64 100.346 1427.33 100.55C1427.03 100.754 1426.66 100.922 1426.21 101.054C1425.78 101.186 1425.27 101.252 1424.68 101.252C1424.01 101.252 1423.4 101.144 1422.85 100.928C1422.3 100.712 1421.82 100.4 1421.41 99.992C1421.01 99.584 1420.7 99.086 1420.47 98.498C1420.26 97.91 1420.15 97.244 1420.15 96.5V96.392C1420.15 95.708 1420.26 95.084 1420.49 94.52C1420.73 93.956 1421.05 93.476 1421.46 93.08C1421.87 92.684 1422.34 92.378 1422.88 92.162C1423.44 91.934 1424.02 91.82 1424.65 91.82C1425.42 91.82 1426.08 91.958 1426.63 92.234C1427.18 92.498 1427.64 92.84 1428 93.26C1428.36 93.668 1428.62 94.124 1428.79 94.628C1428.96 95.12 1429.04 95.6 1429.04 96.068V97.274H1422.49ZM1424.63 93.872C1424.05 93.872 1423.59 94.022 1423.23 94.322C1422.87 94.61 1422.63 94.946 1422.52 95.33H1426.74C1426.66 94.91 1426.44 94.562 1426.05 94.286C1425.68 94.01 1425.21 93.872 1424.63 93.872ZM1431.08 92.072H1434.86V93.368H1435.18C1435.35 92.876 1435.63 92.498 1436.03 92.234C1436.44 91.958 1436.92 91.82 1437.49 91.82C1438.38 91.82 1439.09 92.102 1439.63 92.666C1440.17 93.218 1440.44 94.064 1440.44 95.204V95.6L1438.1 95.816V95.564C1438.1 95.072 1437.97 94.682 1437.72 94.394C1437.47 94.094 1437.09 93.944 1436.59 93.944C1436.08 93.944 1435.69 94.118 1435.4 94.466C1435.11 94.814 1434.97 95.312 1434.97 95.96V98.84H1437.02V101H1430.86V98.84H1432.7V94.232H1431.08V92.072Z" fill="#222222"/>
<path d="M1487.54 99.092C1488 99.092 1488.37 99.026 1488.66 98.894C1488.96 98.75 1489.19 98.564 1489.34 98.336C1489.51 98.096 1489.63 97.826 1489.69 97.526C1489.75 97.214 1489.78 96.896 1489.78 96.572V96.248H1492.15V96.572C1492.15 98.072 1491.76 99.23 1490.96 100.046C1490.18 100.85 1489.04 101.252 1487.54 101.252C1486.1 101.252 1484.96 100.814 1484.12 99.938C1483.28 99.062 1482.86 97.784 1482.86 96.104V93.296C1482.86 92.492 1482.97 91.772 1483.19 91.136C1483.4 90.488 1483.72 89.948 1484.12 89.516C1484.53 89.072 1485.02 88.736 1485.6 88.508C1486.18 88.268 1486.82 88.148 1487.54 88.148C1488.29 88.148 1488.95 88.256 1489.52 88.472C1490.1 88.688 1490.58 89 1490.96 89.408C1491.36 89.816 1491.65 90.308 1491.85 90.884C1492.05 91.46 1492.15 92.108 1492.15 92.828V93.152H1489.78V92.828C1489.78 92.528 1489.74 92.228 1489.67 91.928C1489.6 91.628 1489.48 91.358 1489.31 91.118C1489.14 90.878 1488.91 90.686 1488.62 90.542C1488.34 90.386 1487.98 90.308 1487.54 90.308C1487.15 90.308 1486.81 90.386 1486.52 90.542C1486.23 90.686 1485.99 90.89 1485.8 91.154C1485.61 91.406 1485.46 91.706 1485.37 92.054C1485.28 92.39 1485.24 92.744 1485.24 93.116V96.284C1485.24 96.692 1485.28 97.07 1485.37 97.418C1485.45 97.754 1485.58 98.048 1485.76 98.3C1485.94 98.552 1486.18 98.75 1486.46 98.894C1486.76 99.026 1487.12 99.092 1487.54 99.092ZM1503.17 96.644C1503.17 97.388 1503.05 98.048 1502.8 98.624C1502.54 99.188 1502.2 99.668 1501.77 100.064C1501.34 100.448 1500.84 100.742 1500.28 100.946C1499.72 101.15 1499.14 101.252 1498.53 101.252C1497.92 101.252 1497.33 101.15 1496.77 100.946C1496.21 100.742 1495.72 100.448 1495.29 100.064C1494.86 99.668 1494.52 99.188 1494.26 98.624C1494.01 98.048 1493.89 97.388 1493.89 96.644V96.428C1493.89 95.696 1494.01 95.048 1494.26 94.484C1494.52 93.908 1494.86 93.422 1495.29 93.026C1495.72 92.63 1496.21 92.33 1496.77 92.126C1497.33 91.922 1497.92 91.82 1498.53 91.82C1499.14 91.82 1499.72 91.922 1500.28 92.126C1500.84 92.33 1501.34 92.63 1501.77 93.026C1502.2 93.422 1502.54 93.908 1502.8 94.484C1503.05 95.048 1503.17 95.696 1503.17 96.428V96.644ZM1498.53 99.092C1498.85 99.092 1499.16 99.038 1499.45 98.93C1499.74 98.822 1499.99 98.666 1500.2 98.462C1500.42 98.258 1500.59 98.012 1500.71 97.724C1500.84 97.424 1500.91 97.088 1500.91 96.716V96.356C1500.91 95.984 1500.84 95.654 1500.71 95.366C1500.59 95.066 1500.42 94.814 1500.2 94.61C1499.99 94.406 1499.74 94.25 1499.45 94.142C1499.16 94.034 1498.85 93.98 1498.53 93.98C1498.21 93.98 1497.9 94.034 1497.61 94.142C1497.32 94.25 1497.07 94.406 1496.86 94.61C1496.64 94.814 1496.47 95.066 1496.33 95.366C1496.21 95.654 1496.15 95.984 1496.15 96.356V96.716C1496.15 97.088 1496.21 97.424 1496.33 97.724C1496.47 98.012 1496.64 98.258 1496.86 98.462C1497.07 98.666 1497.32 98.822 1497.61 98.93C1497.9 99.038 1498.21 99.092 1498.53 99.092ZM1507.71 101H1505.45V92.072H1507.71V93.404H1508.04C1508.24 92.9 1508.57 92.51 1509.03 92.234C1509.48 91.958 1510.02 91.82 1510.63 91.82C1511.06 91.82 1511.46 91.892 1511.84 92.036C1512.22 92.168 1512.56 92.378 1512.84 92.666C1513.13 92.954 1513.35 93.32 1513.51 93.764C1513.68 94.208 1513.76 94.736 1513.76 95.348V101H1511.49V95.924C1511.49 95.288 1511.34 94.79 1511.03 94.43C1510.73 94.058 1510.29 93.872 1509.71 93.872C1509.04 93.872 1508.54 94.1 1508.2 94.556C1507.88 95 1507.71 95.6 1507.71 96.356V101ZM1516.22 92.072H1518.86V88.4H1521.13V92.072H1524.35V94.232H1521.13V98.3C1521.13 98.66 1521.29 98.84 1521.62 98.84H1524.03V101H1520.25C1519.84 101 1519.5 100.868 1519.24 100.604C1518.99 100.34 1518.86 100.004 1518.86 99.596V94.232H1516.22V92.072ZM1533.27 99.704C1533.03 100.268 1532.69 100.67 1532.26 100.91C1531.83 101.138 1531.32 101.252 1530.75 101.252C1530.21 101.252 1529.7 101.15 1529.22 100.946C1528.75 100.742 1528.34 100.442 1527.98 100.046C1527.62 99.65 1527.33 99.17 1527.11 98.606C1526.91 98.042 1526.81 97.4 1526.81 96.68V96.392C1526.81 95.684 1526.91 95.048 1527.11 94.484C1527.32 93.92 1527.59 93.44 1527.94 93.044C1528.29 92.648 1528.69 92.348 1529.15 92.144C1529.61 91.928 1530.11 91.82 1530.64 91.82C1531.28 91.82 1531.79 91.928 1532.17 92.144C1532.57 92.36 1532.88 92.696 1533.11 93.152H1533.43V92.072H1535.7V98.3C1535.7 98.66 1535.86 98.84 1536.18 98.84H1536.53V101H1534.98C1534.57 101 1534.23 100.88 1533.97 100.64C1533.72 100.4 1533.59 100.088 1533.59 99.704H1533.27ZM1531.25 99.092C1531.91 99.092 1532.44 98.876 1532.84 98.444C1533.23 98 1533.43 97.4 1533.43 96.644V96.428C1533.43 95.672 1533.23 95.078 1532.84 94.646C1532.44 94.202 1531.91 93.98 1531.25 93.98C1530.59 93.98 1530.06 94.202 1529.67 94.646C1529.27 95.078 1529.07 95.672 1529.07 96.428V96.644C1529.07 97.4 1529.27 98 1529.67 98.444C1530.06 98.876 1530.59 99.092 1531.25 99.092ZM1547.22 97.724C1547.02 98.78 1546.53 99.632 1545.77 100.28C1545.01 100.928 1544 101.252 1542.72 101.252C1542.06 101.252 1541.45 101.15 1540.87 100.946C1540.31 100.742 1539.81 100.448 1539.39 100.064C1538.97 99.68 1538.64 99.206 1538.4 98.642C1538.16 98.078 1538.04 97.436 1538.04 96.716V96.5C1538.04 95.78 1538.16 95.132 1538.4 94.556C1538.64 93.98 1538.97 93.488 1539.39 93.08C1539.83 92.672 1540.32 92.36 1540.89 92.144C1541.46 91.928 1542.08 91.82 1542.72 91.82C1543.97 91.82 1544.98 92.144 1545.75 92.792C1546.53 93.44 1547.02 94.292 1547.22 95.348L1544.99 95.924C1544.92 95.396 1544.69 94.94 1544.31 94.556C1543.92 94.172 1543.38 93.98 1542.69 93.98C1542.36 93.98 1542.06 94.04 1541.77 94.16C1541.48 94.28 1541.23 94.454 1541.01 94.682C1540.8 94.898 1540.62 95.168 1540.49 95.492C1540.37 95.804 1540.31 96.158 1540.31 96.554V96.662C1540.31 97.058 1540.37 97.412 1540.49 97.724C1540.62 98.024 1540.8 98.276 1541.01 98.48C1541.23 98.684 1541.48 98.84 1541.77 98.948C1542.06 99.044 1542.36 99.092 1542.69 99.092C1543.38 99.092 1543.91 98.918 1544.27 98.57C1544.64 98.222 1544.88 97.754 1544.99 97.166L1547.22 97.724ZM1549.28 92.072H1551.93V88.4H1554.19V92.072H1557.42V94.232H1554.19V98.3C1554.19 98.66 1554.36 98.84 1554.68 98.84H1557.09V101H1553.31C1552.9 101 1552.57 100.868 1552.3 100.604C1552.05 100.34 1551.93 100.004 1551.93 99.596V94.232H1549.28V92.072Z" fill="#222222"/>
</g>
<defs>
<clipPath id="clip0_411_167">
<rect width="271.619" height="124" fill="white" transform="translate(40 33.5)"/>
</clipPath>
</defs>
</svg>
