<svg width="29" height="29" viewBox="0 0 29 29" fill="none" xmlns="http://www.w3.org/2000/svg">
<path d="M14.4971 10.8733C12.5002 10.8733 10.8706 12.5029 10.8706 14.4998C10.8706 16.4967 12.5002 18.1263 14.4971 18.1263C16.494 18.1263 18.1236 16.4967 18.1236 14.4998C18.1236 12.5029 16.494 10.8733 14.4971 10.8733ZM25.3738 14.4998C25.3738 12.9981 25.3874 11.5099 25.3031 10.0109C25.2187 8.26977 24.8215 6.7245 23.5483 5.45129C22.2724 4.17536 20.7298 3.78088 18.9887 3.69654C17.4869 3.61221 15.9988 3.62581 14.4998 3.62581C12.9981 3.62581 11.5099 3.61221 10.0109 3.69654C8.26977 3.78088 6.7245 4.17808 5.45129 5.45129C4.17536 6.72722 3.78088 8.26977 3.69654 10.0109C3.61221 11.5126 3.62581 13.0008 3.62581 14.4998C3.62581 15.9988 3.61221 17.4897 3.69654 18.9887C3.78088 20.7298 4.17808 22.2751 5.45129 23.5483C6.72722 24.8242 8.26977 25.2187 10.0109 25.3031C11.5126 25.3874 13.0008 25.3738 14.4998 25.3738C16.0015 25.3738 17.4897 25.3874 18.9887 25.3031C20.7298 25.2187 22.2751 24.8215 23.5483 23.5483C24.8242 22.2724 25.2187 20.7298 25.3031 18.9887C25.3901 17.4897 25.3738 16.0015 25.3738 14.4998ZM14.4971 20.0796C11.4093 20.0796 8.91725 17.5876 8.91725 14.4998C8.91725 11.412 11.4093 8.91997 14.4971 8.91997C17.5849 8.91997 20.0769 11.412 20.0769 14.4998C20.0769 17.5876 17.5849 20.0796 14.4971 20.0796ZM20.3054 9.99459C19.5845 9.99459 19.0023 9.41239 19.0023 8.69145C19.0023 7.97051 19.5845 7.38831 20.3054 7.38831C21.0264 7.38831 21.6086 7.97051 21.6086 8.69145C21.6088 8.86264 21.5752 9.03219 21.5098 9.19039C21.4444 9.34859 21.3484 9.49234 21.2274 9.61339C21.1063 9.73444 20.9626 9.83042 20.8044 9.89583C20.6462 9.96124 20.4766 9.9948 20.3054 9.99459Z" fill="#012A22"/>
</svg>
