<svg width="29" height="29" viewBox="0 0 29 29" fill="none" xmlns="http://www.w3.org/2000/svg">
<path fill-rule="evenodd" clip-rule="evenodd" d="M22.7177 3.625C24.1843 3.625 25.375 4.81573 25.375 6.28232V22.7177C25.375 24.1843 24.1843 25.375 22.7177 25.375H6.28232C4.81573 25.375 3.625 24.1843 3.625 22.7177V6.28232C3.625 4.81573 4.81569 3.625 6.28232 3.625L22.7177 3.625ZM10.4415 21.606V12.0175H7.25372V21.606H10.4415ZM21.9341 21.606V16.1074C21.9341 13.1621 20.3615 11.792 18.2646 11.792C16.5737 11.792 15.8163 12.7219 15.3922 13.3751V12.0175H12.2052C12.2475 12.9173 12.2052 21.606 12.2052 21.606H15.3921V16.2511C15.3921 15.9645 15.4128 15.678 15.4972 15.4731C15.7272 14.9007 16.252 14.3077 17.1325 14.3077C18.2852 14.3077 18.747 15.1873 18.747 16.4758V21.606H21.9341ZM8.86913 7.39395C7.77849 7.39395 7.06592 8.11098 7.06592 9.05078C7.06592 9.97082 7.75682 10.7076 8.82695 10.7076H8.84751C9.95901 10.7076 10.6509 9.97082 10.6509 9.05078C10.6303 8.1123 9.96096 7.39599 8.86913 7.39395Z" fill="#012A22"/>
</svg>
