<svg width="29" height="29" viewBox="0 0 29 29" fill="none" xmlns="http://www.w3.org/2000/svg">
<path fill-rule="evenodd" clip-rule="evenodd" d="M22.7177 3.625C24.1843 3.625 25.375 4.81573 25.375 6.28232V22.7177C25.375 24.1843 24.1843 25.375 22.7177 25.375H6.28232C4.81573 25.375 3.625 24.1843 3.625 22.7177V6.28232C3.625 4.81573 4.81569 3.625 6.28232 3.625L22.7177 3.625ZM21.827 11.0858C21.6512 10.4279 21.133 9.90969 20.475 9.73386C19.2822 9.41424 14.5 9.41424 14.5 9.41424C14.5 9.41424 9.71776 9.41424 8.52499 9.73386C7.86714 9.90969 7.34888 10.4279 7.17301 11.0858C6.85352 12.2785 6.85352 14.7669 6.85352 14.7669C6.85352 14.7669 6.85352 17.2552 7.17301 18.4477C7.34888 19.1057 7.86714 19.624 8.52499 19.7998C9.71776 20.1193 14.5 20.1193 14.5 20.1193C14.5 20.1193 19.2822 20.1193 20.475 19.7998C21.133 19.624 21.6512 19.1057 21.827 18.4477C22.1465 17.2552 22.1465 14.7669 22.1465 14.7669C22.1465 14.7669 22.1465 12.2785 21.827 11.0858ZM12.9706 17.0608V12.4729L16.9438 14.7669L12.9706 17.0608Z" fill="#012A22"/>
</svg>
