<svg width="29" height="29" viewBox="0 0 29 29" fill="none" xmlns="http://www.w3.org/2000/svg">
<path fill-rule="evenodd" clip-rule="evenodd" d="M6.34375 3.625C4.84223 3.625 3.625 4.84223 3.625 6.34375V22.6562C3.625 24.1578 4.84223 25.375 6.34375 25.375H22.6562C24.1578 25.375 25.375 24.1578 25.375 22.6562V6.34375C25.375 4.84223 24.1578 3.625 22.6562 3.625H6.34375ZM13.3878 15.3939L8.48925 9.0625H12.2646L15.476 13.2133L19.4506 9.0625H20.56L15.9717 13.8541L21.1458 20.5417H17.3704L13.8834 16.0348L9.56773 20.5417H8.45831L13.3878 15.3939ZM11.8552 9.85246H10.1207L17.7797 19.7516H19.5141L11.8552 9.85246Z" fill="#012A22"/>
</svg>
