<svg width="29" height="29" viewBox="0 0 29 29" fill="none" xmlns="http://www.w3.org/2000/svg">
<path fill-rule="evenodd" clip-rule="evenodd" d="M22.7177 3.625C24.1843 3.625 25.375 4.81573 25.375 6.28232V22.7177C25.375 24.1843 24.1843 25.375 22.7177 25.375H18.1949V17.1799H21.0241L21.5624 13.6701H18.1949V11.3924C18.1949 10.4322 18.6653 9.49627 20.1736 9.49627H21.7047V6.50819C21.7047 6.50819 20.3152 6.27107 18.9867 6.27107C16.2132 6.27107 14.4005 7.95198 14.4005 10.9951V13.6701H11.3176V17.1799H14.4005V25.375H6.28232C4.81573 25.375 3.625 24.1843 3.625 22.7177V6.28232C3.625 4.81573 4.81569 3.625 6.28232 3.625L22.7177 3.625Z" fill="#012A22"/>
</svg>
