<svg width="221" height="29" viewBox="0 0 221 29" fill="none" xmlns="http://www.w3.org/2000/svg">
<path fill-rule="evenodd" clip-rule="evenodd" d="M22.7177 3.625C24.1843 3.625 25.375 4.81573 25.375 6.28232V22.7177C25.375 24.1843 24.1843 25.375 22.7177 25.375H6.28232C4.81573 25.375 3.625 24.1843 3.625 22.7177V6.28232C3.625 4.81573 4.81569 3.625 6.28232 3.625L22.7177 3.625ZM10.4415 21.606V12.0175H7.25372V21.606H10.4415ZM21.9341 21.606V16.1074C21.9341 13.1621 20.3615 11.792 18.2646 11.792C16.5737 11.792 15.8163 12.7219 15.3922 13.3751V12.0175H12.2052C12.2475 12.9173 12.2052 21.606 12.2052 21.606H15.3921V16.2511C15.3921 15.9645 15.4128 15.678 15.4972 15.4731C15.7272 14.9007 16.252 14.3077 17.1325 14.3077C18.2852 14.3077 18.747 15.1873 18.747 16.4758V21.606H21.9341ZM8.86913 7.39395C7.77849 7.39395 7.06592 8.11098 7.06592 9.05078C7.06592 9.97082 7.75682 10.7076 8.82695 10.7076H8.84751C9.95901 10.7076 10.6509 9.97082 10.6509 9.05078C10.6303 8.1123 9.96096 7.39599 8.86913 7.39395Z" fill="#012A22"/>
<path fill-rule="evenodd" clip-rule="evenodd" d="M70.7177 3.625C72.1843 3.625 73.375 4.81573 73.375 6.28232V22.7177C73.375 24.1843 72.1843 25.375 70.7177 25.375H66.1949V17.1799H69.0241L69.5624 13.6701H66.1949V11.3924C66.1949 10.4322 66.6653 9.49627 68.1736 9.49627H69.7047V6.50819C69.7047 6.50819 68.3152 6.27107 66.9867 6.27107C64.2132 6.27107 62.4005 7.95198 62.4005 10.9951V13.6701H59.3176V17.1799H62.4005V25.375H54.2823C52.8157 25.375 51.625 24.1843 51.625 22.7177V6.28232C51.625 4.81573 52.8157 3.625 54.2823 3.625L70.7177 3.625Z" fill="#012A22"/>
<path fill-rule="evenodd" clip-rule="evenodd" d="M118.718 3.625C120.184 3.625 121.375 4.81573 121.375 6.28232V22.7177C121.375 24.1843 120.184 25.375 118.718 25.375H102.282C100.816 25.375 99.625 24.1843 99.625 22.7177V6.28232C99.625 4.81573 100.816 3.625 102.282 3.625L118.718 3.625ZM117.827 11.0858C117.651 10.4279 117.133 9.90969 116.475 9.73386C115.282 9.41424 110.5 9.41424 110.5 9.41424C110.5 9.41424 105.718 9.41424 104.525 9.73386C103.867 9.90969 103.349 10.4279 103.173 11.0858C102.854 12.2785 102.854 14.7669 102.854 14.7669C102.854 14.7669 102.854 17.2552 103.173 18.4477C103.349 19.1057 103.867 19.624 104.525 19.7998C105.718 20.1193 110.5 20.1193 110.5 20.1193C110.5 20.1193 115.282 20.1193 116.475 19.7998C117.133 19.624 117.651 19.1057 117.827 18.4477C118.146 17.2552 118.146 14.7669 118.146 14.7669C118.146 14.7669 118.146 12.2785 117.827 11.0858ZM108.971 17.0608V12.4729L112.944 14.7669L108.971 17.0608Z" fill="#012A22"/>
<path fill-rule="evenodd" clip-rule="evenodd" d="M150.344 3.625C148.842 3.625 147.625 4.84223 147.625 6.34375V22.6562C147.625 24.1578 148.842 25.375 150.344 25.375H166.656C168.158 25.375 169.375 24.1578 169.375 22.6562V6.34375C169.375 4.84223 168.158 3.625 166.656 3.625H150.344ZM157.388 15.3939L152.489 9.0625H156.265L159.476 13.2133L163.451 9.0625H164.56L159.972 13.8541L165.146 20.5417H161.37L157.883 16.0348L153.568 20.5417H152.458L157.388 15.3939ZM155.855 9.85246H154.121L161.78 19.7516H163.514L155.855 9.85246Z" fill="#012A22"/>
<path d="M206.497 10.8733C204.5 10.8733 202.871 12.5029 202.871 14.4998C202.871 16.4967 204.5 18.1263 206.497 18.1263C208.494 18.1263 210.124 16.4967 210.124 14.4998C210.124 12.5029 208.494 10.8733 206.497 10.8733ZM217.374 14.4998C217.374 12.9981 217.387 11.5099 217.303 10.0109C217.219 8.26977 216.822 6.7245 215.548 5.45129C214.272 4.17536 212.73 3.78088 210.989 3.69654C209.487 3.61221 207.999 3.62581 206.5 3.62581C204.998 3.62581 203.51 3.61221 202.011 3.69654C200.27 3.78088 198.725 4.17808 197.451 5.45129C196.175 6.72722 195.781 8.26977 195.697 10.0109C195.612 11.5126 195.626 13.0008 195.626 14.4998C195.626 15.9988 195.612 17.4897 195.697 18.9887C195.781 20.7298 196.178 22.2751 197.451 23.5483C198.727 24.8242 200.27 25.2187 202.011 25.3031C203.513 25.3874 205.001 25.3738 206.5 25.3738C208.002 25.3738 209.49 25.3874 210.989 25.3031C212.73 25.2187 214.275 24.8215 215.548 23.5483C216.824 22.2724 217.219 20.7298 217.303 18.9887C217.39 17.4897 217.374 16.0015 217.374 14.4998ZM206.497 20.0796C203.409 20.0796 200.917 17.5876 200.917 14.4998C200.917 11.412 203.409 8.91997 206.497 8.91997C209.585 8.91997 212.077 11.412 212.077 14.4998C212.077 17.5876 209.585 20.0796 206.497 20.0796ZM212.305 9.99459C211.584 9.99459 211.002 9.41239 211.002 8.69145C211.002 7.97051 211.584 7.38831 212.305 7.38831C213.026 7.38831 213.609 7.97051 213.609 8.69145C213.609 8.86264 213.575 9.03219 213.51 9.19039C213.444 9.34859 213.348 9.49234 213.227 9.61339C213.106 9.73444 212.963 9.83042 212.804 9.89583C212.646 9.96124 212.477 9.9948 212.305 9.99459Z" fill="#012A22"/>
</svg>
